<svg id="Layer_1" data-name="Layer 1" xmlns="http://www.w3.org/2000/svg" xmlns:xlink="http://www.w3.org/1999/xlink" viewBox="0 0 562.36 744.75"><defs><style>.cls-1{fill:none;}.cls-2{clip-path:url(#clip-path);}.cls-3{fill:#94d3c1;}.cls-4{fill:#fff;}</style><clipPath id="clip-path" transform="translate(0.22 -40.38)"><rect class="cls-1" width="595.28" height="841.89"/></clipPath></defs><title>BlockedColumn_SVG</title><g class="cls-2"><path class="cls-3" d="M327,209.46c4-.12-2.12-.45,2.58-.2a5.19,5.19,0,0,1-2.58.2" transform="translate(0.22 -40.38)"/><path class="cls-3" d="M342.76,208A134.75,134.75,0,0,0,363,201.46a69.72,69.72,0,0,0,18.68-11.76c1.19-1.11.15.85,2.78-1.77a107.47,107.47,0,0,0,15.27-19.08,89,89,0,0,0,10.81-24.41l0,1c1.11-3,.68-7,1.38-10.27.14,0,0,1.08.33.33-.22-.87.16-6.06,0-7.48.2-1.31.62-1.18.69-2.9l-.56-1.9c-1.2-5.21-1-12.89-3.61-19.74.19.31.45,1,.41.39-3.53-11.07-10.5-24-19.6-33.25.46.27,1,.42.63-.27-.73-.2-3.56-3-6.26-5.15-.74-1.54-4.82-3.44-7.9-6l.34.11c-2.7-1.31-3.59-2.62-5.95-3.37l-1.42-1.33c-1.48,0-3.72-2.22-6.1-3v.17c-2.13-.92-3.22-1.47-5.26-2.16l-.17-.15c-4.75-1.71-7.62-2.43-7.6-2-1.61-.87,4.79,1,2.27-.29C344,45,335.44,44.53,327,44.47l-25.46,0A20,20,0,0,1,298,44c-1.68.11-6.34.1-7.87.39.56,0-1.09-.29-2-.32-3.06-.21-3.34.61-6.71.36,1.34-.14,1.79-.32,1.35-.53-2.88.43-6.71.37-10.11.51.53-.1,1.35-.15,1.22-.33-3.71.49-6.76-.1-10,.21l1.22-.32c-5.23-.39-1.54.67-6.07.44,1.08-.1.7-.23.9-.36-4.22.58-11.06.39-15.27.59.25-.05.18-.13.18-.13-4.59.07-9.38-.11-14.43.14-1.84-.14.6-.78-4.26-.66.18.64-8.25.26-5.38,1-4.15-.11-10.72-.35-13.48-.13,1.86-.24-2-.78,1.42-.84l-2.6-.39c.38-.26,2.68.09,1.85-.24-1.73,0-6.77.28-8.31.18a82,82,0,0,1-11.33,1.21c2.44-.25-1.39-.71.27-.82l-7.23,1.23c-1.73,0-.38-.51-2.87-.34.13.17-1,.28-1.72.41-.64-.07-7.17.16-7.92-.47-.76-.25,2.81-.13.9-.36l-6.51.24-.06-.09c-2.11-.09-6.2.27-3.92.62,1.47,0-.55-.38,1.61-.2a50.16,50.16,0,0,1-8.37.48,2.44,2.44,0,0,0,1.4-.45c-4.29.5-8.82.66-13.6.86-.08.3,1.78-.54,2.48-.39-6.13-.41-12.65.6-17.76,0,.84-.06.46.42.4.34-3,0-2.82-.47-4.74-.31-.19-.26-2.42.08-4.4.16-1,.18-.52-.13,1.21-.16-2.76.22-13.8.61-20.18.24a25.58,25.58,0,0,1-5.38.6l.58-.39c-1.34-.24-4.92,0-5.16-.31-3.13.48,12-.41,7.82,0-1.09-.34-5.9.63-5,.09-2.94,0-5.79.46-8.61.09.82.06,2.39-.55,0-.53-4.18.08-1.19.19-4.58.33l-2.13.16c-.14.38-3.74,0-2.18.38-.52-.32-6.09.19-5.66-.45l.58-.5a27.2,27.2,0,0,0-4.38.75c-.24,0-.71-.14-.62-.23-.29.77-4.32-.06-6.47.54-3.8-.27-9.64,0-11.43-.51a65.32,65.32,0,0,1-8.91.35,6.48,6.48,0,0,0,1.76-.26,18.68,18.68,0,0,0-4.51.1c.42-.12-4.18-.45-6.5-.73-2.9.23-1.91.65-2.2.9-2.65-.76-8.18.49-11.5-.2,1-.1,4.23-.37,1.82-.56a10.37,10.37,0,0,0-4.2,0l-2.49.26-1.36.05a8.18,8.18,0,0,1-.94-.06,4,4,0,0,1,.74.63,3.35,3.35,0,0,0-1.49-.08c.07.81.17,1.39-.2,1.19a14.35,14.35,0,0,1,.06,2.48c0,1,0,1.8.35,1.56-.52,7,.31,17.07-.79,21.38.1,1,0,3.52.31,3,.34-1.67-.24-2.34,0-3,0,.9.19,1.1.27,1.19-.14,2.19-.18,3.9-.69,1.84-.39,4.86,1,5,.8,11.18-.25-.28-.35.19-.31,2l.44,3.43c-.1,4-.58,2.27-1,2.37a33.7,33.7,0,0,0,.38,5.71l-.54,2.59c.39-1.88.26,1.76.36,2.77l-.1-1a23.52,23.52,0,0,0,0,4.11c.27-.29.38-2.81.46-4.19.19,1.09.14,2.79.37,4.24-.43-.48-.31,3.47-.35,5.17A9,9,0,0,0,5,116.9c-.22,0,0,3.18-.34,1.66a18.14,18.14,0,0,0,0-2.61,8.47,8.47,0,0,0-.27,3.79c.21,2,.84-.51.57,3.3a13.43,13.43,0,0,0-.42-2l-.22,3.56.38.15c-.1.48-.13.15-.18.37.4,1.06.12,5.44.58,6.25,0,1.8-.27,3.78-.31,5.5l0-.33A29.61,29.61,0,0,0,5,143.23l-.09-.09a37.93,37.93,0,0,0,.26,5.28c-.29,2.9-1.46,1-1,4.18,0,2.94.71,4.61,1,3.42-.26,5.28.37,11.27-.23,16.17A4.89,4.89,0,0,1,5.24,174c-.15,7.76.46,16.37-.3,22.54-.16-2.25-.39-.15-.61-.1.35,1.85-.36,2.23.24,2.9.34-.19.51,0,.66-2.19,0,1.72.08,3.73.12,5.73a26.51,26.51,0,0,1-.07,3.2,5.21,5.21,0,0,1,1,.2c-.46-.17,0-.27.31-.38-.55.56,3,.64,5.55.45l.37-.34,1.67.35c1-.11,1.1-.71,3.66-.39a1.21,1.21,0,0,0,.75.36,52,52,0,0,1,9.33-.46l2.37.5c1.24-.06,3.32-.36,1.14-.5,4.94.3,8.13.34,9.7.77,8.51-1,20.86-1.09,30.76-1l-.29.25c2.66.24,1.38-.44,3.24-.27-.86.24,2,.53-.07.82,3.81.27,4.9-.44,7.38-.55.37-.33-2,.21-1.51-.21.42-.12,5.26.26,5.85-.24,1,.19.21.56-.3.77L88.5,206c2.85.59-6.47,1.06-3.49,1.78l2.14-.08c2,.53-5.66.6-.29.78,2.34-.25,4.33-1,2.25-1.2,4.86-.14,2.25-1.21,7.47-1.16,1.43.29-4.18.07-3.17.48,2.46.41,4.94-.22,7.12-.08-2.43-.19-.37-.7,1.2-.79,2.66.23-1.72.47,2,.52.62-.29,4.08-.5,1.09-.71,1.35-.65,3.91.19,6-.33,1.23.47-3.88,1.08.26,1.31-.66-.45,5.1-.61,2.91-1.27,1.63.13,1.79.48.61.75,2.32.28,5.62-.81,6.38.07l.79-.45,3,.51c2,0,6.57-.62,6.38.07.66-.07,5.31,0,3.52-.52-2.9-.29-3.33.35-4.94-.3,2,.53,4.17-.07,5.85-.24l.27.26a23.12,23.12,0,0,0,3.91-.33c-.76.15-.37.33.43.4l1-.41c4-.2,1,.72,4.9.6l-3,.31a36.78,36.78,0,0,0,3.89.19c.73-.37,2.1-.82,2.73-1.1,2.22-.17,1,.41,3.18,0l-2.86.45c-.43.12,1.93.61,4.9.6,1.89-.13,4.83-.66,1.84-.86,1.49,0,3.57.22,2.39.49,3.37-.13-.44-.4,2.47-.63,1.19.24,4.89.6,7.13,1l-3,.61h2c-2.62.5,1.32.38-.15.9a27.65,27.65,0,0,0,4.38-.23c-4-.84,4.52-1.15,3.35-1.91,5.52-.21,3.45,1.86,9.21.66-1-.2,1.77-.78-1.71-.56,3.44.09,2.34-.77,6.39-.45-3,.31,3.22.78-1.12,1.23.29-.25-2.41-.19-3.08-.12,1.41.29-.29.77,3.22.77,2.14-.07,5.09-.09,4.66-.48-.09-.44-3.28,0-1.9-.4,4.28-.15,5,.51,6.76-.26-2.7.06-3.38-.39-3.33-.7l3.14-.18-.61.29c5,.21,1.49-.53,6.37-.45l2.28.58c-1.16.49-7.09-.22-6.22.58,3.17,0,4.22-.37,7.21-.16l-2.23.16c1.13,0,2.26,1.09,6.79.47,2.33-.25.61-.29.67-.59,5.09-.09,6.61-.4,9.89-.45-.67.59,5.79.06,2.17.66-1.66-.34-9-.31-10.83.25,1.86.7-4-.1-5.09.61,4.08,0,3.89.7,4.54,1.15a19.32,19.32,0,0,0,2.91-.22c.48-.43-1-.42-1.09-.86a69.18,69.18,0,0,0,11.46-.53c1.52.21,1,.63-.76.67,5.42-.12,11.21-.07,16.35.06-3.32-.69,5.75-.16,3.48-.74-2.76-.15-5.13-.64-3.61-.95,1.72,0-.06.3.66.45,2.2-.38,3.42.6,5.57,0-5,.22-1,.84-1.87,1.38,3.57-.3-.15.39,3.37.39,3.57-.3,7.93-.54,11.89-.66,5,.51,12.58,0,17,0,2.32.27.75.89,3.27,1,2.95,0-2.2-.66,2.18-.38l-.42.12c1.32-.14,8,.42,9.32-.46l-1.35.66a12,12,0,0,0,2.24-.16c0,.22,1,.41-.34.56,2.7.45,5.67-.08,8.6-.1l-1.88-.39c5-.31,8.39.08,13.25-.05l-.14.38,2.88-.23c-.7.37,1.95.61,3.48.3l-7.52.94c-2.09-.22,2.28-.46,1-.84a19,19,0,0,0-6.34.14,15.47,15.47,0,0,0,3.14-.18c.57.54-2,.52-3.34.87a11.3,11.3,0,0,0,2.38,0,43.84,43.84,0,0,1-6.51.32c2-.21-1.09-.33-.33-.48-.24.47-3.05.61-6.7.48-2.61-.54-6.85.35-11.08.2a33.55,33.55,0,0,1,6.48-1.05c-2.66-.24-3,0-5.62-.23a18.43,18.43,0,0,1-5.66,1.12l-.19-.36c-3.14.18-3.14.7-7.13.61l-19.11-.22-.2-.35c-2.9.75-9.68.28-13.59.61-6.66-.34-14.45.34-17.87-.27-11.74.27-22,.54-34.18.41l2.05-.51c-2.18.37-1.42-.3-3.55-.22,2.45.41-3,.53-4.48.84a127.15,127.15,0,0,0-17.17.39l-.19-.35c-4.85.66-10.65.08-16.7,0a12.87,12.87,0,0,0-3.59-.44,89.54,89.54,0,0,1-9.8.88c-3.52,0-9.22-.14-12.79-.36-13.22.8-26.72.29-40.45.77l-1-.41c-13.32.88-29.7.08-41.08.53l1.1-.71c-3.56-.21-8.12.19-7.21.69-3.58-.22-8.92.34-11.19-.24-3.66-.13-4.47.33-7.51.42l-5.53-.16-7.16,0c0-2.54-.06-5.46-.11-9.33l0,1.7c.15.76.46.83.5-.89-.2-2.57.19-9.46-.65-6.9.49-7.36-.4-17.16.26-24.33-.23.62-.28-1.19-.43-1.95,0-6.46.46-13.25.07-18.41.11-1,.39,1.64.41-1-.09-1.55-.3,0-.43-1.95-.43-10.46.45-21.19.33-30.7C-.21,100.41,0,82.76-.06,66.56l.17.18C-.54,61.31.77,54-.2,49.68c.16-.36.07-7.39.4-5.44,0-.94-.07-1.91-.11-3H6.55l4.27.11a74.34,74.34,0,0,0,8.74-.15,9.79,9.79,0,0,0-1.57.09c6.31.37,11.88-.14,18.54.2a8.7,8.7,0,0,0-2.1.3c2.57.32,6.09-.72,7.5.1,1.48,0,1-.41.15-.39,14.58.32,30.14-.2,45.31-.39,10.88.49.67,1.38,9.25.77.7.16.5-.31.62-.14,3.32-.23,5.17.91,7.48.48-.95-.5,1.53-.28,1.6-.59,6.64.33,8,.78,13.23.4l-.4.26c6.15-.74,13.28-.34,18.47-1.2l99.5-.73c32.79.29,64.48-.51,98.11.51,4,.43,6.11,1.22,8.35,1.53a88.45,88.45,0,0,1,8.87,1.78c-.38,0-.92-.1-.38.15.63-.58,6,1.72,6.93,1.6a87.22,87.22,0,0,1,31.51,20.13c-1.51-1.43-2.65-1.75-.79-.13l2,1.64.17.42c1.19,1.19,2.64,2.37,1.6.95a76.41,76.41,0,0,1,13.77,20.49,78.11,78.11,0,0,1,7,23.48,88.37,88.37,0,0,1-6.45,47.58,99,99,0,0,1-14.43,22.57c-17.17,17.76-39,27.09-63.8,27.87a15.69,15.69,0,0,1,2.88-.92c2-.56,5.36-.95,10.28-2" transform="translate(0.22 -40.38)"/><path class="cls-3" d="M322.27,209.51c-.84-.28-3.61-.44-1.4-.82.27.27,1.69.57,1.4.82" transform="translate(0.22 -40.38)"/><path class="cls-3" d="M248.49,206.59a5,5,0,0,1-1.28-.16,12.78,12.78,0,0,1,2.49-.11,2.33,2.33,0,0,0-1.21.27" transform="translate(0.22 -40.38)"/><path class="cls-3" d="M229.63,206.42c.28-.25,4.32-.45,6.71-.48Z" transform="translate(0.22 -40.38)"/><path class="cls-3" d="M212.06,205.38c-1.53-.21-1.1-.33.94-.33.15.14-.53.21-.94.33" transform="translate(0.22 -40.38)"/><path class="cls-3" d="M210.81,206a12.37,12.37,0,0,1-2.9-.28c.06.21,3.38-.14,2.9.28" transform="translate(0.22 -40.38)"/><path class="cls-3" d="M172.65,205.22a15.73,15.73,0,0,1-3.76-.05c1,.19,4.46-.32,3.76.05" transform="translate(0.22 -40.38)"/><path class="cls-3" d="M154.92,205.6a8.17,8.17,0,0,0-1.48,0c-1.05-.12.06-.3.95-.33Z" transform="translate(0.22 -40.38)"/><polygon class="cls-3" points="9.41 5.59 7.49 5.72 7.78 5.47 9.41 5.59"/><path class="cls-3" d="M150.64,46c1.92-.16,1.34.24,1.65.28-1.72,0,.64-.32-1.65-.28" transform="translate(0.22 -40.38)"/><polygon class="cls-3" points="227.13 4.32 226.55 4.32 226.75 3.81 227.13 4.32"/><path class="cls-4" d="M395.61,126.3a71.54,71.54,0,1,1-71.54-71.55,71.54,71.54,0,0,1,71.54,71.55" transform="translate(0.22 -40.38)"/></g><g class="cls-2"><path class="cls-4" d="M548.37,132.23H481.61V76.64h66.76Zm-65.66-1.11h64.56V77.74H482.71Z" transform="translate(0.22 -40.38)"/><rect class="cls-4" x="482.17" y="47.19" width="65.87" height="1.1"/><path class="cls-4" d="M491.66,83.41a3,3,0,1,1-3-3,3,3,0,0,1,3,3" transform="translate(0.22 -40.38)"/><path class="cls-4" d="M498.89,83.41a3,3,0,1,1-3-3,3,3,0,0,1,3,3" transform="translate(0.22 -40.38)"/><path class="cls-4" d="M506,83.41a3,3,0,1,1-3-3,3,3,0,0,1,3,3" transform="translate(0.22 -40.38)"/><polygon class="cls-4" points="486.43 73.1 496.13 80.44 505.29 70.7 510.21 78.83 510.21 84.32 486.43 84.32 486.43 73.1"/><path class="cls-4" d="M510.87,125.26H485.34V99.72h25.53Zm-23.69-1.84H509V101.56H487.18Z" transform="translate(0.22 -40.38)"/><path class="cls-4" d="M494.9,113.22a2.14,2.14,0,1,1,2.14-2.14,2.15,2.15,0,0,1-2.14,2.14m0-2.81a.67.67,0,1,0,.67.67.67.67,0,0,0-.67-.67" transform="translate(0.22 -40.38)"/><path class="cls-4" d="M544.38,104.63H515a.55.55,0,0,1-.55-.55.55.55,0,0,1,.55-.55h29.39a.55.55,0,0,1,.55.55.55.55,0,0,1-.55.55" transform="translate(0.22 -40.38)"/><path class="cls-4" d="M544.38,110.22H515a.55.55,0,0,1-.55-.55.55.55,0,0,1,.55-.55h29.39a.55.55,0,0,1,.55.55.55.55,0,0,1-.55.55" transform="translate(0.22 -40.38)"/><path class="cls-4" d="M544.38,115.82H515a.56.56,0,0,1,0-1.11h29.39a.56.56,0,0,1,0,1.11" transform="translate(0.22 -40.38)"/><rect class="cls-4" x="415.58" y="65.36" width="66.42" height="0.69"/><polygon class="cls-4" points="459.19 154.99 443.25 154.99 443.25 107.23 514.32 107.23 514.76 90.73 515.45 90.75 515 107.92 443.94 107.92 443.94 154.3 459.19 154.3 459.19 154.99"/><polygon class="cls-3" points="59.69 366.91 47.22 366.91 34.75 366.91 34.75 381.44 47.22 381.44 59.69 381.44 72.15 376.39 72.15 371.97 59.69 366.91"/><polygon class="cls-3" points="59.69 422.64 47.22 422.64 34.75 422.64 34.75 437.17 47.22 437.17 59.69 437.17 72.15 432.12 72.15 427.7 59.69 422.64"/><path class="cls-3" d="M553.54,579.42c3.47-.07-1.87-.27,2.27-.12a6.51,6.51,0,0,1-2.27.12" transform="translate(0.22 -40.38)"/><path class="cls-3" d="M556.2,567.33c-.8-11.18,0-25.91-.5-38.16,0-1.43.43.38.33-2.86-.62-11.87-.25-30.58.23-45l.12.87c.09-2.75-.32-6.12-.26-9,.08,0,.11.93.22.25-.24-.73-.11-5.27-.29-6.51.09-1.15.29-1,.4-2.53l-.28-1.67c-.67-4.64,0-11.28-.3-17.61.06.3.12.92.18.42-.41-10.17-.33-22.9-.48-34.27.1.45.28.87.39.21-.29-.56-.37-4.08-.42-7.12.3-1.38-.28-5.23-.11-8.81l.06.31c-.31-2.65.19-3.92-.19-6.07l.23-1.67c-.42-1.17.23-3.83,0-6l-.09.07c-.1-2.06.11-3.13,0-5l0-.18c-.11-4.47.12-7.07-.21-7,.27-1.56.12,4.34.51,1.88-.29-12.14-.29-25.07-.28-37h-7.23a26.16,26.16,0,0,1-3.13-.3c-1.47.07-5.57.06-6.92.23.5,0-.95-.17-1.73-.19-2.7-.12-2.95.37-5.91.22,1.18-.09,1.58-.2,1.19-.32-2.53.26-5.9.22-8.88.3.46,0,1.18-.09,1.07-.19-3.26.29-5.95-.06-8.81.12l1.07-.19c-4.61-.23-1.36.4-5.34.26.95-.06.62-.13.79-.21-3.71.35-9.72.23-13.43.35.22,0,.17-.08.17-.08-4,.05-8.26-.06-12.7.09-1.61-.09.53-.47-3.74-.4.16.39-7.25.16-4.73.6-3.65-.07-9.42-.21-11.85-.08,1.64-.15-1.78-.47,1.25-.5l-2.29-.24c.34-.16,2.36.06,1.63-.14-1.52,0-6,.17-7.31.1-2.81.24-5.4.68-10,.73,2.15-.15-1.22-.43.24-.49l-6.36.74c-1.52,0-.33-.31-2.52-.21.11.11-.84.17-1.51.25s-6.31.1-7-.28c-.66-.15,2.48-.08.79-.22l-5.72.14-.05-.05c-1.86-.06-5.46.16-3.45.37,1.29,0-.48-.23,1.42-.12a61.22,61.22,0,0,1-7.36.29,2.8,2.8,0,0,0,1.23-.27c-3.77.3-7.76.39-12,.52-.07.18,1.56-.33,2.18-.23-5.39-.25-11.13.35-15.61,0,.73,0,.4.25.35.2-2.6,0-2.48-.28-4.17-.19a28.46,28.46,0,0,0-3.87.1c-.9.11-.45-.08,1.06-.09-2.42.13-12.13.36-17.73.14a33.43,33.43,0,0,1-4.74.36l.51-.24c-1.18-.14-4.32,0-4.54-.18-2.75.29,10.6-.25,6.88,0-1-.2-5.19.38-4.38.05-2.59,0-5.1.28-7.57.06.71,0,2.1-.33,0-.32-3.68,0-1.05.12-4,.2l-1.88.09c-.12.23-3.29,0-1.92.23-.45-.19-5.35.12-5-.27l.51-.3a33.4,33.4,0,0,0-3.85.46c-.21,0-.63-.09-.55-.14-.25.46-3.8,0-5.69.32l-4.35-.11c0,.54,0,1.05-.06,1.49a13.56,13.56,0,0,1-.15,1.82c.14,2.56.31,4.9.21,7.83a8.51,8.51,0,0,0-.15-1.55,23.65,23.65,0,0,0,.06,4c-.07-.38-.27,3.67-.44,5.71.14,2.55.39,1.68.54,1.93-.45,2.33.3,7.2-.12,10.12-.06-.89-.22-3.72-.34-1.6-.45,2.33.34,4.69.12,8.45l.38-.92c-.24,1.67.22,5.53-.17,5.15.14,1.25-.12,4.43.25,4-.32,6.17.19,15-.48,18.8.07.88,0,3.09.19,2.64.21-1.47-.15-2.06,0-2.6,0,.79.11,1,.16,1.05-.09,1.92-.11,3.43-.42,1.61-.23,4.27.63,4.4.48,9.84-.15-.25-.21.16-.18,1.75l.26,3c-.06,3.51-.35,2-.61,2.08a41.89,41.89,0,0,0,.23,5l-.33,2.28c.24-1.66.16,1.55.22,2.43l-.06-.88a29.84,29.84,0,0,0,0,3.61,24.56,24.56,0,0,0,.27-3.68c.07,1.13.14,2.28.22,3.72-.25-.42-.18,3.06-.2,4.55a11.16,11.16,0,0,0,.21,2.43c-.13,0,0,2.79-.2,1.46a21.31,21.31,0,0,0,0-2.3,10.63,10.63,0,0,0-.16,3.34c.13,1.76.5-.46.34,2.89a14.44,14.44,0,0,0-.26-1.72l-.13,3.13.23.13c-.05.43-.07.13-.11.33.25.93.08,4.78.35,5.49,0,1.58-.16,3.33-.18,4.84l0-.29a37.37,37.37,0,0,0,.11,5.85l-.05-.09c0,1,0,3.39.15,4.65-.17,2.55-.87.86-.58,3.67,0,2.59.42,4,.57,3-.16,4.64.22,9.91-.14,14.22a6.53,6.53,0,0,1,.21,1.62c-.09,6.81.27,14.39-.18,19.81-.1-2-.23-.13-.36-.09.2,1.63-.22,2,.13,2.55.21-.16.32,0,.4-1.92.11,4.06.11,10.25-.08,12.5.09-1.12.16-.25.22.64-.33-.3-.38,2.7-.27,5l.21.32-.21,1.47a8.86,8.86,0,0,1,.23,3.22,1.32,1.32,0,0,0-.22.66,64.78,64.78,0,0,1,.28,8.2l-.3,2.09c0,1.08.21,2.91.3,1-.18,4.34-.2,7.15-.46,8.52.29,3.44.45,7.58.53,11.9,0,3.77.06,7.64.09,11.21h.52l-.09.15c1.93.14,1.1-.26,2.64-.16-.75.15,1.79.32-.05.49,3.34.17,4.31-.26,6.48-.33.33-.2-1.75.13-1.33-.12.38-.07,4.63.15,5.15-.15.84.12.19.34-.27.46l2.05-.14c2.5.35-5.7.63-3.07,1.06l1.88,0c1.8.31-5,.35-.25.46,2.05-.15,3.8-.59,2-.72,4.27-.08,2-.72,6.57-.7,1.26.18-3.67.05-2.79.3,2.16.24,4.34-.14,6.26-.05-2.13-.12-.33-.42,1.06-.48,2.33.14-1.52.29,1.79.32.54-.18,3.58-.31.95-.43,1.2-.39,3.45.11,5.25-.2,1.08.28-3.41.65.23.79-.58-.27,4.48-.37,2.56-.77,1.42.08,1.57.29.53.46,2,.16,4.94-.49,5.61,0l.7-.28,2.59.31c1.8,0,5.78-.37,5.61,0,.58,0,4.67,0,3.09-.31-2.54-.17-2.92.21-4.34-.18a20.59,20.59,0,0,0,5.14-.14l.24.16a30.56,30.56,0,0,0,3.44-.2c-.67.09-.32.2.38.24l.91-.25c3.56-.12.84.43,4.31.36l-2.63.19c.57,0,1.75.19,3.41.11l2.41-.66c1.95-.1.87.25,2.79,0l-2.52.27c-.37.07,1.7.37,4.31.36,1.66-.08,4.25-.4,1.62-.52,1.31,0,3.14.13,2.1.29,3-.07-.38-.23,2.17-.37l6.27.57-2.67.37h1.77c-2.29.3,1.17.22-.13.54a37.68,37.68,0,0,0,3.85-.14c-3.54-.5,4-.69,2.95-1.15,4.85-.12,3,1.12,8.1.4-.83-.12,1.55-.47-1.5-.34,3,0,2.05-.46,5.61-.27-2.64.19,2.83.47-1,.74a11,11,0,0,0-2.71-.07c1.24.18-.26.46,2.83.46,1.89,0,4.47-.05,4.1-.29-.08-.26-2.88,0-1.67-.24,3.76-.09,4.38.31,5.94-.16-2.38,0-3-.23-2.93-.41l2.77-.11-.54.17c4.42.13,1.3-.31,5.6-.27l2,.35c-1,.3-6.24-.13-5.48.35,2.79,0,3.71-.23,6.34-.1l-2,.1a19.9,19.9,0,0,0,6,.28c2.05-.15.54-.17.59-.35l8.7-.27c-.6.35,5.09,0,1.91.39a57.44,57.44,0,0,0-9.53.15c1.63.42-3.51-.06-4.47.37,3.59,0,3.41.42,4,.69a23.43,23.43,0,0,0,2.56-.14c.42-.25-.88-.25-1-.51a88.14,88.14,0,0,0,10.07-.32c1.34.13.92.38-.67.41,4.77-.08,9.86,0,14.39,0-2.93-.41,5-.1,3-.44-2.43-.09-4.51-.39-3.17-.58,1.51,0-.05.19.58.27,1.93-.22,3,.37,4.9,0-4.36.13-.85.51-1.65.83,3.14-.18-.13.23,3,.23,3.13-.18,7-.32,10.45-.39,4.36.31,11.06,0,15,0,2,.17.66.54,2.87.6,2.6,0-1.92-.4,1.92-.23l-.37.07c1.17-.08,7.06.25,8.2-.28l-1.19.4a15.33,15.33,0,0,0,2-.09c0,.13.86.24-.31.33a68.64,68.64,0,0,0,7.57-.06l-1.66-.23c4.42-.19,7.38,0,11.65,0l-.13.23,2.54-.13c-.61.22,1.72.36,3.06.18l-6.61.56c-1.84-.13,2-.28.85-.5a24.39,24.39,0,0,0-5.57.08,18.93,18.93,0,0,0,2.76-.11c.5.33-1.8.31-2.93.53a16.13,16.13,0,0,0,2.09,0c-1.56.16-3.13.18-5.73.19,1.76-.13-1-.2-.29-.29-.21.28-2.68.37-5.89.29-2.29-.33-6,.21-9.74.12a41.27,41.27,0,0,1,5.69-.63l-4.94-.14a23,23,0,0,1-5,.67l-.17-.21a61.37,61.37,0,0,1-6.27.36l-16.8-.13-.17-.21c-2.56.45-8.52.17-11.95.37-5.86-.21-12.71.2-15.72-.16-10.32.16-19.35.32-30,.24l1.8-.31c-1.91.23-1.24-.17-3.12-.13,2.16.25-2.61.32-3.93.51-4.77-.24-10.88,0-15.11.23l-.16-.21c-4.27.4-9.36,0-14.68,0a16.5,16.5,0,0,0-3.16-.27c-2.88.34-4.39.32-8.62.53-3.09,0-8.1-.08-11.24-.21-11.62.48-23.49.17-35.57.46l-.87-.25-4.11.14-5.72.09c0-5.35,0-10.83,0-16.06,0-4.75,0-9.27-.08-13.12l.42,1c.13-3.13-.11-7.14-.41-6.34.13-3.14-.21-7.84.14-9.84.08-3.21-.19-3.93-.25-6.6.16-6.43.12-8.82,0-14.88l0,1.51c.09.66.27.72.3-.79-.12-2.26.11-8.31-.39-6.06.29-6.48-.24-15.1.15-21.39-.14.53-.16-1.06-.26-1.73,0-5.67.28-11.64.05-16.18.07-.9.23,1.44.24-.87-.05-1.37-.17,0-.25-1.71-.26-9.2.26-18.63.2-27-.27-14.87-.14-30.38-.18-44.63l.1.16c-.39-4.77.4-11.19-.19-15,.1-1.13.05-4.31.24-3.47-.27-3.8.26-10.64-.08-16.13a13.49,13.49,0,0,0,.05,1.38c.22-5.55-.08-10.44.12-16.3a11.05,11.05,0,0,0,.18,1.85c.19-2.26-.43-5.36.06-6.6,0-1.3-.25-.92-.23-.13,0-2.7,0-5.43.06-8.22l34.53-.29c9.56.3.58.83,8.12.46.62.1.45-.19.56-.08,2.91-.14,4.54.54,6.57.29-.84-.3,1.34-.17,1.4-.35,5.85.19,7,.46,11.64.23l-.35.16c5.41-.44,11.67-.21,16.24-.72l87.48-.44H558c0,7.92-.08,16-.12,24.19a122.53,122.53,0,0,0-.24,14.86c-.07-.3-.08-.77-.14-.27.34.38,0,5.29.35,6,0,10.79,0,20.73,0,31.83,0-1.76-.31-2.64-.29-.55l.22,2.18-.1.35c.06,1.43.22,3,.33,1.51.3,27.89-.39,55.33-.3,82.65-.15,6.49,0,15.72,0,22.77-.45,20.89-.82,39.72-.5,60.94,0,0-.88-2.77-1.08-11.53" transform="translate(0.22 -40.38)"/><path class="cls-3" d="M549.36,579.45c-.74-.17-3.17-.26-1.23-.49.23.16,1.49.34,1.23.49" transform="translate(0.22 -40.38)"/><path class="cls-3" d="M484.49,577.7a6.08,6.08,0,0,1-1.12-.1,16.56,16.56,0,0,1,2.18-.06,2.82,2.82,0,0,0-1.06.16" transform="translate(0.22 -40.38)"/><path class="cls-3" d="M467.91,577.6a49.88,49.88,0,0,1,5.9-.29Z" transform="translate(0.22 -40.38)"/><path class="cls-3" d="M452.46,577c-1.34-.12-1-.2.83-.19.13.08-.46.12-.83.19" transform="translate(0.22 -40.38)"/><path class="cls-3" d="M451.36,577.32a17,17,0,0,1-2.55-.17c.05.13,3-.09,2.55.17" transform="translate(0.22 -40.38)"/><path class="cls-3" d="M417.81,576.88a20.14,20.14,0,0,1-3.3,0c.84.12,3.92-.19,3.3,0" transform="translate(0.22 -40.38)"/><path class="cls-3" d="M402.22,577.11a11.25,11.25,0,0,0-1.3,0c-.92-.07.05-.18.84-.19Z" transform="translate(0.22 -40.38)"/><polygon class="cls-3" points="328.36 329.88 328.43 331.56 328.28 331.31 328.36 329.88"/><path class="cls-3" d="M415.69,335.71c1.68-.09,1.17.14,1.45.17-1.52,0,.56-.19-1.45-.17" transform="translate(0.22 -40.38)"/><polygon class="cls-3" points="482.96 294.57 482.45 294.57 482.63 294.26 482.96 294.57"/><polygon class="cls-3" points="528.38 334.87 543.34 334.87 558.3 334.87 558.3 352.3 543.34 352.3 528.38 352.3 513.42 346.24 513.42 340.94 528.38 334.87"/><polygon class="cls-3" points="528.38 400.91 543.34 400.91 558.3 400.91 558.3 418.34 543.34 418.34 528.38 418.34 513.42 412.27 513.42 406.98 528.38 400.91"/><polygon class="cls-3" points="528.38 471.11 543.34 471.11 558.3 471.11 558.3 488.55 543.34 488.55 528.38 488.55 513.42 482.48 513.42 477.18 528.38 471.11"/><path class="cls-3" d="M124.29,322.34a4.22,4.22,0,0,0-4.21,4.21c0,4.2,4.21,6.87,4.21,6.87s4.2-3.11,4.2-6.87a4.21,4.21,0,0,0-4.2-4.21m0,6a1.83,1.83,0,1,1,1.83-1.83,1.83,1.83,0,0,1-1.83,1.83" transform="translate(0.22 -40.38)"/><path class="cls-3" d="M128.46,272.2a1.06,1.06,0,0,0-.1-1.13c-.09-.12-.2-.22-.31-.34l-.51-.51a.78.78,0,0,0-.81-.16,1,1,0,0,0-.47.29c-.49.48-1.08.15-1.47-.08a4.77,4.77,0,0,1-1.37-1.24c-.32-.42-1-1.25-.34-1.86a1.2,1.2,0,0,0,.28-.47.78.78,0,0,0-.16-.81l-.51-.52c-.11-.11-.22-.22-.33-.31a1.06,1.06,0,0,0-1.13-.1,2.09,2.09,0,0,0-1.23,1.81,1.69,1.69,0,0,0,.22.75,12.28,12.28,0,0,0,1.54,2c.6.66,1.23,1.29,1.88,1.89.45.4.89.8,1.36,1.18a4.74,4.74,0,0,0,.9.64,2.17,2.17,0,0,0,.75.22,2.06,2.06,0,0,0,1.81-1.22" transform="translate(0.22 -40.38)"/><path class="cls-3" d="M124.36,295a4.29,4.29,0,1,0,4.29,4.29,4.29,4.29,0,0,0-4.29-4.29m0,8a3.69,3.69,0,0,1-2.73-1.22,2.09,2.09,0,0,0,.56,0c.23,0,.51-.08.58-.3s-.32-.62-.18-.91a.54.54,0,0,1,.23-.22l.5-.3-1-.22a.83.83,0,0,1,.24-.78,1.75,1.75,0,0,1,.67-.33c.08,0,.18-.1.15-.18a.14.14,0,0,0-.08-.07,4.53,4.53,0,0,1-.54-.27.46.46,0,0,1-.19-.52c0-.08.1-.15.07-.23a.23.23,0,0,0-.07-.1.51.51,0,0,1,.19-.73,1.26,1.26,0,0,1,.84-.1.35.35,0,0,1,.06-.31.26.26,0,0,0,.29-.12s0-.08.06-.1a.17.17,0,0,1,.1,0,5.7,5.7,0,0,0,.58-.06.63.63,0,0,1,0-.27,3,3,0,0,1,.52.09l-.15,0a1.91,1.91,0,0,0,0,.24,1.26,1.26,0,0,1,.36.43l-.38,0a1,1,0,0,1,.26.34.78.78,0,0,0-.31,0,.24.24,0,0,0-.15.26.15.15,0,0,1,0,.09s-.06,0-.09,0l-.74,0a.55.55,0,0,1-.44-.12c0-.05-.07-.12-.11-.16a.24.24,0,0,0-.32,0,.36.36,0,0,0-.06.33c.09.31.44.51.49.83,0,.06,0,.13,0,.16a.11.11,0,0,0,.07,0,.32.32,0,0,0,.32-.3,1,1,0,0,1,.72.91c0,.21,0,.47.14.6s.51,0,.77,0c0-.1,0-.2-.1-.29s-.12-.21,0-.28.2,0,.27.05a.55.55,0,0,0,.23.2,1.85,1.85,0,0,0-.13-1.11.59.59,0,0,1,.43.38,1.71,1.71,0,0,0,.27.54.81.81,0,0,1,.12.14.63.63,0,0,1,.07.3,3,3,0,0,0,.27.87.24.24,0,0,0,.06.11.34.34,0,0,0,.14,0l.36.09a.72.72,0,0,0-.11-.32h.12l-.1-.76a.33.33,0,0,0-.1-.24.82.82,0,0,1,.54.44,3.69,3.69,0,0,1-3.65,3.25m2.23-2.27s-.07.15-.1.2a.75.75,0,0,1-.21.26l-.37.35a1,1,0,0,1-.35.27,1.11,1.11,0,0,1-.41.08,3.39,3.39,0,0,1-1.79-.25c-.06,0-.14-.1-.11-.16h.3c.06,0,.13,0,.14-.07v-.07a.13.13,0,0,1,.07-.05.8.8,0,0,0,.36-.32.24.24,0,0,0,0-.14c0-.06,0-.13,0-.18a.2.2,0,0,1,.07-.06c.14-.13,0-.4.11-.54h.09a.87.87,0,0,0,.32.66.22.22,0,0,0,0-.16c.07,0,.13,0,.18-.09a1,1,0,0,1,.78-.15l.09,0c.12.06.1.28.23.31a.38.38,0,0,0,.15,0,.13.13,0,0,1,.13.11.13.13,0,0,0,0-.13s.2,0,.22.12" transform="translate(0.22 -40.38)"/><path class="cls-3" d="M234.29,348.08c1.86-.05-1-.18,1.22-.08a3,3,0,0,1-1.22.08" transform="translate(0.22 -40.38)"/><path class="cls-3" d="M235.77,341.51c-.53-6,0-13.92-.34-20.5,0-.77.29.2.22-1.54-.41-6.38-.16-16.42.16-24.19l.08.47c.06-1.48-.21-3.29-.18-4.85.06,0,.08.5.16.13-.17-.39-.08-2.83-.2-3.5.06-.62.19-.55.26-1.36l-.18-.89c-.45-2.5,0-6.06-.2-9.47,0,.17.08.5.12.23-.27-5.46-.22-12.3-.32-18.41.06.24.19.47.26.11a17.17,17.17,0,0,1-.28-3.82c.2-.74-.19-2.81-.08-4.73l.05.16c-.21-1.42.12-2.11-.14-3.26l.16-.9c-.28-.62.15-2.05,0-3.23l-.06,0c-.07-1.1.07-1.68,0-2.71l0-.09c-.08-2.41.08-3.8-.14-3.74.18-.85.08,2.32.34,1-.06-3.74-.12-7.39-.18-11.05H222.7a10.45,10.45,0,0,1-1.68-.2c-.79.05-3,0-3.72.16.27,0-.51-.12-.93-.13-1.45-.08-1.58.25-3.17.15.63-.06.84-.13.63-.22-1.35.18-3.17.15-4.77.2.25,0,.64,0,.58-.12-1.75.19-3.2,0-4.74.08l.58-.13c-2.47-.16-.73.27-2.87.18.51,0,.33-.09.43-.15-2,.24-5.22.16-7.22.24.12,0,.09,0,.09,0-2.17,0-4.43-.05-6.82,0-.87,0,.29-.31-2-.26.08.26-3.9.1-2.54.4-2-.05-5.06-.14-6.37-.06.88-.09-.95-.31.67-.33l-1.23-.16c.19-.1,1.27,0,.88-.1-.82,0-3.2.12-3.93.08a46.51,46.51,0,0,1-5.35.48c1.15-.1-.65-.28.13-.33l-3.42.5c-.81,0-.17-.21-1.35-.14.06.07-.45.11-.81.16a20.55,20.55,0,0,1-3.74-.18c-.36-.1,1.32-.06.42-.15l-3.08.1,0,0c-1,0-2.93.11-1.85.25.69,0-.27-.15.76-.08a27.17,27.17,0,0,1-4,.19,1.26,1.26,0,0,0,.66-.18c-2,.2-4.16.26-6.42.35,0,.12.84-.22,1.17-.16-2.89-.17-6,.24-8.39,0,.4,0,.22.17.19.14-1.39,0-1.33-.19-2.24-.12a11.35,11.35,0,0,0-2.08.06c-.48.07-.24,0,.57-.06-1.3.09-6.51.24-9.53.09a13.79,13.79,0,0,1-2.54.24L124,226c-.63-.1-2.32,0-2.43-.13-1.48.2,5.69-.16,3.69,0-.52-.13-2.78.25-2.35,0a37,37,0,0,1-4.07,0c.39,0,1.13-.22,0-.21-2,0-.56.08-2.16.13l-1,.07c-.06.15-1.76,0-1,.15-.24-.13-2.87.08-2.67-.18l.28-.2a14,14,0,0,0-2.08.3c-.11,0-.33-.06-.29-.09-.14.31-2,0-3,.21l-2.19-.07c0,.24,0,.47,0,.68a6.44,6.44,0,0,1-.1.94,33.56,33.56,0,0,1,.14,4.21,3.41,3.41,0,0,0-.1-.83,10.71,10.71,0,0,0,0,2.13c0-.2-.18,2-.29,3.07.09,1.37.26.9.36,1-.31,1.25.2,3.86-.08,5.43,0-.47-.15-2-.23-.86-.3,1.25.23,2.52.08,4.54l.25-.49c-.15.9.15,3-.11,2.76.09.68-.08,2.38.17,2.16-.21,3.31.12,8.06-.32,10.1,0,.47,0,1.66.13,1.42.13-.79-.1-1.11,0-1.4,0,.43.08.52.11.56-.06,1-.07,1.85-.28.87-.15,2.3.42,2.37.32,5.28-.1-.13-.14.09-.12.95l.17,1.62c0,1.88-.23,1.07-.4,1.11a18.45,18.45,0,0,0,.15,2.71l-.22,1.22c.16-.89.11.83.15,1.3l0-.47a12,12,0,0,0,0,1.94,10.12,10.12,0,0,0,.18-2c.06.73.08,1.11.15,2-.17-.22-.12,1.64-.14,2.45a4.76,4.76,0,0,0,.15,1.3c-.09,0,0,1.5-.14.78a9.6,9.6,0,0,0,0-1.23,4.61,4.61,0,0,0-.11,1.79c.09,1,.34-.24.23,1.56a7.51,7.51,0,0,0-.17-.93l-.09,1.69.15.07c0,.22,0,.07-.07.17.16.5.05,2.57.23,3,0,.85-.1,1.79-.12,2.6v-.15a17,17,0,0,0,.07,3.14l0-.05a20,20,0,0,0,.1,2.5c-.12,1.37-.58.46-.39,2,0,1.39.28,2.18.38,1.62-.1,2.49.15,5.32-.09,7.64a2.85,2.85,0,0,1,.14.87c-.06,3.66.18,7.73-.12,10.64-.07-1.06-.16-.07-.25-.05.14.88-.14,1.06.1,1.37.14-.09.21,0,.26-1,.08,2.18.08,5.51,0,6.72.06-.61.1-.14.15.34-.23-.16-.26,1.45-.18,2.67l.13.17-.14.79a3.73,3.73,0,0,1,.16,1.73.64.64,0,0,0-.15.36,27.6,27.6,0,0,1,.19,4.4l-.2,1.12c0,.59.14,1.57.2.54a41.5,41.5,0,0,1-.31,4.58c.14,1.14.3,3.51.3,3.51a11.49,11.49,0,0,1,1.45-.07l2.55,0h4.94l-.14.1c1.26.1.66-.18,1.53-.11-.41.1,1,.21,0,.33a20.13,20.13,0,0,0,3.49-.22c.17-.13-.94.09-.72-.08a17.44,17.44,0,0,0,2.77-.1c.45.08.1.23-.15.31l1.1-.1c1.34.24-3.06.42-1.65.71l1,0c1,.21-2.67.24-.13.31,1.1-.1,2-.39,1.06-.48,2.29-.06,1.06-.48,3.53-.46.67.11-2,0-1.5.19,1.16.16,2.33-.09,3.36,0-1.14-.08-.17-.28.57-.32,1.25.09-.81.19,1,.21.29-.12,1.93-.2.52-.28.64-.27,1.85.07,2.81-.14.58.19-1.83.43.13.53-.31-.18,2.4-.25,1.37-.51.77.05.85.19.29.3,1.09.11,2.65-.33,3,0l.38-.18,1.39.2c1,0,3.1-.25,3,0,.31,0,2.51,0,1.66-.21-1.36-.12-1.57.14-2.33-.12a8.91,8.91,0,0,0,2.76-.1l.13.11a13.85,13.85,0,0,0,1.85-.13c-.36.06-.17.13.2.16l.5-.17c1.91-.08.45.29,2.31.24l-1.42.13c.31,0,.95.12,1.84.07l1.29-.44c1.05-.06.47.17,1.5,0l-1.35.17a6.06,6.06,0,0,0,2.31.25c.9-.06,2.29-.27.87-.35.71,0,1.69.09,1.13.19,1.59,0-.2-.15,1.17-.25l3.36.39-1.43.24h1c-1.24.2.62.15-.08.36a15.77,15.77,0,0,0,2.07-.1c-1.9-.33,2.14-.45,1.58-.76,2.61-.08,1.63.74,4.35.27-.44-.08.84-.32-.8-.23,1.62,0,1.1-.31,3-.18-1.42.13,1.52.31-.53.49.14-.1-1.14-.07-1.46,0,.67.11-.14.3,1.52.3,1,0,2.41,0,2.21-.19s-1.55,0-.9-.16c2-.06,2.35.21,3.19-.11-1.28,0-1.6-.15-1.57-.27l1.48-.07-.29.11c2.38.09.7-.21,3-.18l1.08.23c-.55.2-3.35-.09-2.94.24,1.5,0,2-.15,3.41-.07l-1.06.06a8.5,8.5,0,0,0,3.21.19c1.1-.1.29-.11.32-.23l4.67-.18c-.32.23,2.74,0,1,.26a24.43,24.43,0,0,0-5.12.1c.87.28-1.89,0-2.41.24,1.93,0,1.84.29,2.15.47a11.26,11.26,0,0,0,1.37-.1c.23-.16-.47-.16-.51-.34a38.91,38.91,0,0,0,5.41-.21c.72.08.49.25-.36.27,2.56,0,5.3,0,7.73,0-1.57-.27,2.71-.06,1.64-.29-1.31-.06-2.43-.26-1.71-.39s0,.13.32.19c1-.16,1.61.24,2.63,0-2.34.09-.46.34-.89.55,1.69-.12-.07.16,1.6.16l5.61-.27c2.35.21,5.94,0,8,0,1.09.11.35.36,1.54.4,1.4,0-1-.27,1-.15l-.19,0c.62-.05,3.78.17,4.4-.18l-.64.26a5.94,5.94,0,0,0,1.06-.06c0,.09.47.16-.16.22a29.11,29.11,0,0,0,4.06,0l-.89-.15c2.38-.13,4,0,6.26,0l-.07.16,1.37-.09c-.33.15.92.24,1.64.12l-3.55.37c-1-.09,1.08-.18.46-.33a10.64,10.64,0,0,0-3,0,8.29,8.29,0,0,0,1.49-.07c.26.22-1,.21-1.58.35a6.33,6.33,0,0,0,1.12,0,25.38,25.38,0,0,1-3.07.12c.94-.08-.52-.13-.16-.19a8.4,8.4,0,0,1-3.17.19c-1.23-.21-3.23.14-5.23.08a19.16,19.16,0,0,1,3.06-.42l-2.65-.09a10.38,10.38,0,0,1-2.68.45l-.09-.14a27.21,27.21,0,0,1-3.37.24l-9-.09L199,348c-1.37.3-4.58.11-6.42.25-3.15-.14-6.83.13-8.44-.11-5.55.11-10.4.21-16.15.16l1-.2c-1,.15-.67-.12-1.68-.09,1.16.16-1.4.21-2.11.34a72,72,0,0,0-8.12.15l-.09-.14a64.7,64.7,0,0,1-7.88,0,7.06,7.06,0,0,0-1.7-.17c-1.55.23-2.36.21-4.63.35-1.66,0-4.35-.06-6-.14-6.24.32-12.62.11-19.11.3l-.47-.16c-2.08.12-4.33.16-6.59.17h-7.67c0-2.55,0-4.89-.06-7.08l.29.52c.08-1.69-.08-3.84-.28-3.41.09-1.69-.14-4.22.1-5.29,0-1.72-.13-2.11-.17-3.54.11-3.46.08-4.74,0-8l0,.81c.06.36.18.39.2-.42-.08-1.22.08-4.47-.26-3.26.19-3.48-.16-8.11.1-11.49-.09.29-.11-.57-.17-.93,0-3,.18-6.26,0-8.69,0-.49.15.77.17-.47,0-.73-.13,0-.18-.92-.17-4.94.18-10,.14-14.5-.18-8-.09-16.33-.12-24l.07.09c-.26-2.57.26-6-.13-8.06.07-.61,0-2.32.16-1.87-.18-2,.17-5.71-.06-8.66a6.7,6.7,0,0,0,0,.74c.15-3-.06-5.61.08-8.76a4.79,4.79,0,0,0,.12,1c.13-1.21-.29-2.87,0-3.54,0-.7-.17-.5-.16-.07,0-1.53,0-3,0-4.6l18.74-.2c5.14.2.32.55,4.37.31.33.06.24-.13.29-.06,1.57-.09,2.45.37,3.53.19-.44-.2.73-.11.76-.23a49.27,49.27,0,0,0,6.25.16l-.19.1c2.91-.29,6.27-.13,8.73-.48l47-.29,44.61.06c0,1.44,0,2.94,0,4.44a53.49,53.49,0,0,0-.16,8c0-.16-.05-.42-.09-.15.22.21,0,2.85.23,3.23,0,5.81,0,11.14,0,17.1,0-.94-.21-1.41-.19-.29l.14,1.17-.06.19c0,.77.15,1.6.22.81.2,15-.26,29.73-.2,44.4-.1,3.49,0,8.45,0,12.23-.3,11.23-.54,21.34-.33,32.74,0,0-.59-1.48-.72-6.19" transform="translate(0.22 -40.38)"/><path class="cls-3" d="M232,348.1c-.4-.11-1.7-.17-.66-.33.13.11.8.23.66.33" transform="translate(0.22 -40.38)"/><path class="cls-3" d="M197.19,346.93a2.29,2.29,0,0,1-.6-.06,6.9,6.9,0,0,1,1.17-.05,1.27,1.27,0,0,0-.57.11" transform="translate(0.22 -40.38)"/><path class="cls-3" d="M188.29,346.86a21.2,21.2,0,0,1,3.16-.19Z" transform="translate(0.22 -40.38)"/><path class="cls-3" d="M180,346.45c-.72-.09-.52-.13.45-.13.07.05-.25.08-.45.13" transform="translate(0.22 -40.38)"/><path class="cls-3" d="M179.39,346.68a6.75,6.75,0,0,1-1.37-.12c0,.09,1.6-.05,1.37.12" transform="translate(0.22 -40.38)"/><path class="cls-3" d="M161.37,346.38a8.14,8.14,0,0,1-1.78,0c.46.08,2.11-.12,1.78,0" transform="translate(0.22 -40.38)"/><path class="cls-3" d="M153,346.54a4,4,0,0,0-.69,0c-.5-.05,0-.12.44-.13Z" transform="translate(0.22 -40.38)"/><polygon class="cls-3" points="104.77 204.04 104.82 204.95 104.72 204.81 104.77 204.04"/><path class="cls-3" d="M151.44,226c.9-.06.63.1.78.11-.82,0,.3-.12-.78-.11" transform="translate(0.22 -40.38)"/><polygon class="cls-3" points="187.68 185.12 187.41 185.13 187.5 184.92 187.68 185.12"/><path class="cls-3" d="M213.2,719.79c2.26,0-1.21-.18,1.48-.08a4.32,4.32,0,0,1-1.48.08" transform="translate(0.22 -40.38)"/><path class="cls-3" d="M214.94,711.93c-.53-7.26,0-16.83-.34-24.78,0-.93.29.24.22-1.86-.41-7.71-.16-19.86.15-29.25l.09.57c.06-1.79-.22-4-.18-5.87.06,0,.08.61.15.17-.16-.48-.07-3.42-.19-4.23.06-.75.19-.67.26-1.64l-.18-1.09c-.45-3,0-7.32-.2-11.44,0,.2.07.61.12.28-.27-6.6-.22-14.87-.32-22.25.06.29.18.56.26.13a25.64,25.64,0,0,1-.29-4.62c.21-.9-.18-3.4-.07-5.72l.05.2c-.22-1.72.12-2.55-.14-3.94l.16-1.09c-.28-.76.15-2.48,0-3.9l-.06,0c-.07-1.33.07-2,0-3.27l0-.12c-.08-2.9.08-4.59-.14-4.52.18-1,.08,2.81.34,1.22-.07-6.39-.13-12.67-.19-19H204.8a17.08,17.08,0,0,1-2-.2c-1,0-3.62,0-4.5.15.32,0-.62-.11-1.13-.12-1.75-.09-1.91.24-3.83.14.77-.06,1-.13.77-.21-1.64.17-3.83.14-5.77.2.3,0,.77-.06.7-.13-2.12.2-3.87,0-5.72.08l.69-.13c-3-.15-.88.27-3.47.18.62,0,.4-.09.52-.14-2.41.23-6.31.15-8.72.23.14,0,.1,0,.1,0l-8.24.06c-1-.06.35-.31-2.43-.27.1.26-4.71.11-3.07.4-2.37,0-6.12-.14-7.7,0,1.07-.1-1.15-.32.82-.34l-1.49-.15c.22-.11,1.53,0,1.06-.1l-4.75.07a64.74,64.74,0,0,1-6.47.48c1.4-.1-.79-.28.16-.32l-4.13.49c-1,0-.22-.2-1.64-.14.07.07-.55.11-1,.17a31.43,31.43,0,0,1-4.52-.19c-.44-.1,1.6-.05.51-.14l-3.72.09,0,0c-1.21,0-3.54.1-2.24.24.84,0-.32-.15.92-.08a41.24,41.24,0,0,1-4.78.2,2,2,0,0,0,.8-.18c-2.45.19-5,.26-7.77.34,0,.12,1-.22,1.42-.16-3.5-.16-7.23.24-10.14,0,.48,0,.26.17.23.14-1.69,0-1.61-.19-2.71-.13a18.07,18.07,0,0,0-2.51.06c-.58.08-.3,0,.69-.06-1.58.09-7.88.25-11.52.1a20.12,20.12,0,0,1-3.07.24l.32-.16c-.76-.09-2.8,0-2.94-.12-1.79.19,6.88-.17,4.47,0-.63-.13-3.37.26-2.85,0-1.68,0-3.31.18-4.92,0,.47,0,1.37-.22,0-.21-2.39,0-.68.07-2.62.13l-1.21.06c-.08.15-2.14,0-1.25.15-.29-.12-3.48.08-3.23-.17l.33-.21a21.84,21.84,0,0,0-2.5.31c-.14,0-.41-.06-.36-.1-.16.31-2.46,0-3.69.22l-2.81-.07c0,.34,0,.65,0,.94a9,9,0,0,1-.1,1.18c.09,1.67.2,3.19.13,5.09a4.34,4.34,0,0,0-.1-1,15.69,15.69,0,0,0,0,2.58c0-.25-.18,2.38-.29,3.71.09,1.65.26,1.09.36,1.25-.3,1.52.2,4.68-.08,6.57,0-.57-.15-2.41-.22-1-.31,1.52.22,3,.07,5.49l.26-.6c-.16,1.09.14,3.6-.11,3.35.09.81-.09,2.87.16,2.6-.21,4,.12,9.75-.32,12.21,0,.57,0,2,.13,1.71a16.32,16.32,0,0,0,0-1.68,1.36,1.36,0,0,0,.11.68c0,1.24-.07,2.22-.28,1-.15,2.77.42,2.85.33,6.38-.1-.16-.14.11-.13,1.14l.18,2c0,2.28-.23,1.3-.41,1.35a26.85,26.85,0,0,0,.15,3.27l-.21,1.47c.15-1.07.1,1,.14,1.58l0-.57a19.35,19.35,0,0,0,0,2.34,14.52,14.52,0,0,0,.18-2.39c.06.83.09,1.39.15,2.42-.17-.27-.12,2-.14,3a7.57,7.57,0,0,0,.15,1.58c-.09,0,0,1.82-.14,1a14.14,14.14,0,0,0,0-1.49,7,7,0,0,0-.11,2.16c.09,1.15.34-.29.23,1.88a10.59,10.59,0,0,0-.17-1.11l-.09,2,.16.09c0,.27-.06.08-.08.21.17.6.05,3.11.24,3.57,0,1-.11,2.16-.13,3.14v-.19a24.73,24.73,0,0,0,.07,3.79l0-.05c0,.65,0,2.2.1,3-.12,1.65-.58.56-.39,2.38,0,1.68.28,2.63.38,2-.1,3,.15,6.43-.09,9.23a4.18,4.18,0,0,1,.14,1c-.06,4.43.18,9.35-.12,12.87-.07-1.28-.15-.08-.24-.06.14,1.06-.15,1.27.09,1.66.14-.11.21,0,.26-1.25.08,2.64.08,6.65,0,8.12.06-.73.11-.17.15.41-.22-.19-.26,1.76-.18,3.23l.14.21-.14.95a5.71,5.71,0,0,1,.15,2.09.82.82,0,0,0-.14.43,42.3,42.3,0,0,1,.18,5.33l-.2,1.35c0,.71.14,1.9.2.65-.12,2.82-.13,4.64-.3,5.54.13,1.56.22,3.34.28,5.23l.12,4.73h5.32l-.17.1c1.52.09.79-.18,1.85-.11-.5.1,1.15.21,0,.33a30.75,30.75,0,0,0,4.21-.22c.22-.13-1.13.08-.86-.09a23.68,23.68,0,0,0,3.34-.09c.55.08.12.22-.17.31l1.33-.1c1.62.23-3.7.42-2,.71l1.23,0c1.16.21-3.24.24-.17.31,1.33-.1,2.47-.39,1.28-.48,2.78-.06,1.29-.48,4.27-.47.81.12-2.39,0-1.81.2,1.4.16,2.82-.09,4.06,0-1.38-.08-.21-.29.69-.32,1.51.09-1,.19,1.16.21.35-.12,2.33-.2.62-.29.78-.26,2.24.08,3.41-.13.7.19-2.22.43.14.53-.37-.18,2.92-.25,1.67-.51.93,0,1,.19.35.3,1.32.11,3.2-.33,3.64,0l.45-.19,1.68.21c1.17,0,3.76-.25,3.65,0,.37,0,3,0,2-.21-1.65-.12-1.89.14-2.81-.12a13,13,0,0,0,3.33-.1l.16.11a20,20,0,0,0,2.23-.13c-.43.06-.21.13.25.16l.59-.17c2.32-.08.55.29,2.8.24l-1.71.13c.37,0,1.14.12,2.21.07L112,718c1.27-.07.57.17,1.81,0l-1.63.18a8.59,8.59,0,0,0,2.8.24c1.08-.05,2.76-.26,1-.34.85,0,2,.09,1.36.19,1.93,0-.25-.16,1.41-.25l4.07.39-1.73.24h1.15c-1.49.19.76.15-.08.36a23,23,0,0,0,2.5-.1c-2.31-.33,2.57-.46,1.91-.76,3.15-.08,2,.74,5.26.26-.54-.08,1-.31-1-.22,2,0,1.34-.31,3.65-.18-1.72.13,1.84.31-.64.49a6.75,6.75,0,0,0-1.76,0c.81.12-.17.31,1.84.31,1.23,0,2.9,0,2.66-.19-.05-.18-1.87,0-1.08-.16,2.44-.06,2.84.2,3.86-.11-1.55,0-1.93-.15-1.91-.27l1.8-.08-.35.12c2.87.08.85-.21,3.63-.18l1.31.23c-.66.2-4.05-.09-3.56.24,1.81,0,2.42-.16,4.12-.07l-1.27.06a12.31,12.31,0,0,0,3.88.19c1.33-.1.35-.12.38-.24l5.65-.17c-.39.23,3.3,0,1.24.26a35.68,35.68,0,0,0-6.19.1c1.06.28-2.28,0-2.9.24,2.33,0,2.22.29,2.59.47a16.38,16.38,0,0,0,1.66-.1c.27-.17-.57-.16-.62-.34a56.7,56.7,0,0,0,6.54-.21c.87.08.59.25-.44.27l9.34,0c-1.89-.27,3.28-.06,2-.29-1.58-.06-2.93-.26-2.06-.39s0,.12.38.18c1.25-.15,2,.25,3.17,0-2.82.09-.54.33-1.06.55,2-.12-.09.16,1.92.16l6.79-.27c2.84.21,7.18,0,9.72,0,1.32.11.42.35,1.86.4,1.69,0-1.25-.27,1.25-.16l-.24,0c.75,0,4.58.17,5.32-.18l-.77.26a8.59,8.59,0,0,0,1.28-.06c0,.08.56.16-.2.22a42.73,42.73,0,0,0,4.92,0l-1.08-.15c2.87-.13,4.79,0,7.57,0l-.09.16,1.65-.09c-.4.14,1.12.24,2,.12l-4.29.37c-1.2-.09,1.3-.18.55-.34a15.44,15.44,0,0,0-3.62.06,12,12,0,0,0,1.79-.07c.33.21-1.16.21-1.9.35a9.33,9.33,0,0,0,1.36,0c-1,.1-2,.12-3.72.12,1.14-.08-.62-.13-.19-.19a12.25,12.25,0,0,1-3.83.19c-1.49-.21-3.91.14-6.32.08a27.69,27.69,0,0,1,3.69-.42l-3.2-.09a14.87,14.87,0,0,1-3.24.45l-.1-.14a39.71,39.71,0,0,1-4.08.24l-10.9-.09-.12-.14c-1.65.3-5.53.11-7.76.25-3.8-.14-8.25.13-10.2-.11-6.71.11-12.57.21-19.52.16l1.17-.2c-1.24.15-.81-.12-2-.09,1.41.16-1.69.21-2.55.33-3.09-.15-7.07,0-9.81.16l-.1-.14c-2.78.27-6.08,0-9.54,0a10.1,10.1,0,0,0-2-.17c-1.87.22-2.85.21-5.6.35l-7.3-.15c-7.54.32-15.25.12-23.09.31l-.57-.16-5.13.14-6.33,0c0-2.68,0-5.34,0-7.86,0-2.18,0-4.21-.05-6.11l.28.63c.08-2-.08-4.64-.28-4.13.09-2-.13-5.09.1-6.38,0-2.09-.13-2.56-.17-4.29.11-4.17.08-5.73,0-9.66l0,1c.06.44.18.47.2-.5-.08-1.47.08-5.41-.26-3.94.2-4.21-.16-9.81.11-13.89-.1.34-.11-.69-.18-1.12,0-3.69.19-7.57,0-10.51,0-.59.16.93.17-.57,0-.89-.12,0-.17-1.11-.18-6,.17-12.1.13-17.53,0-9.8-.08-19.75-.12-29l.07.1c-.26-3.1.26-7.27-.13-9.74.07-.73,0-2.8.16-2.25-.18-2.47.18-6.91-.05-10.48a7,7,0,0,0,0,.9c0-3.86.05-6.59.08-10.59a7,7,0,0,0,.12,1.2c.13-1.47-.29-3.48,0-4.28,0-.85-.16-.6-.15-.09,0-1.77,0-3.55,0-5.36l22.45-.19c6.21.19.38.55,5.28.3.4.07.29-.12.36-.05,1.9-.1,2.95.36,4.27.19-.55-.2.87-.11.91-.23a69,69,0,0,0,7.55.15l-.22.11c3.51-.3,7.58-.14,10.54-.48l56.82-.3,48.06,0c0,3.49,0,7.08-.06,10.7a78.35,78.35,0,0,0-.16,9.66c0-.2,0-.51-.1-.18.23.24,0,3.43.24,3.9,0,7,0,13.46,0,20.67,0-1.14-.21-1.71-.19-.36l.14,1.42-.06.23c0,.93.15,1.94.22,1,.2,18.11-.26,35.93-.2,53.67-.1,4.22,0,10.21,0,14.79-.3,13.56-.54,25.79-.33,39.57,0,0-.59-1.8-.72-7.48" transform="translate(0.22 -40.38)"/><path class="cls-3" d="M210.49,719.81c-.48-.11-2.06-.18-.8-.33.15.11,1,.23.8.33" transform="translate(0.22 -40.38)"/><path class="cls-3" d="M168.37,718.64a4.21,4.21,0,0,1-.74-.06,10.16,10.16,0,0,1,1.42-.05,1.69,1.69,0,0,0-.68.11" transform="translate(0.22 -40.38)"/><path class="cls-3" d="M157.6,718.57a30.86,30.86,0,0,1,3.82-.19Z" transform="translate(0.22 -40.38)"/><path class="cls-3" d="M147.56,718.16c-.87-.09-.63-.14.54-.13.08.05-.3.08-.54.13" transform="translate(0.22 -40.38)"/><path class="cls-3" d="M146.85,718.39a9.81,9.81,0,0,1-1.66-.12c0,.09,1.93,0,1.66.12" transform="translate(0.22 -40.38)"/><path class="cls-3" d="M125.06,718.09a11.85,11.85,0,0,1-2.15,0c.55.08,2.55-.13,2.15,0" transform="translate(0.22 -40.38)"/><path class="cls-3" d="M114.94,718.25a6,6,0,0,0-.85,0c-.6,0,0-.12.54-.13Z" transform="translate(0.22 -40.38)"/><polygon class="cls-3" points="62.04 548.59 62.09 549.68 61.99 549.52 62.04 548.59"/><path class="cls-3" d="M118.66,566.56c1.09-.07.76.09.94.11-1,0,.36-.13-.94-.11" transform="translate(0.22 -40.38)"/><polygon class="cls-3" points="162.42 525.67 162.09 525.67 162.21 525.46 162.42 525.67"/><rect class="cls-3" x="73.47" y="585.73" width="130.42" height="2.15"/><rect class="cls-3" x="73.47" y="585.73" width="108.38" height="2.15"/><rect class="cls-3" x="73.47" y="615.88" width="130.42" height="2.15"/><rect class="cls-3" x="73.47" y="615.88" width="96.06" height="2.15"/><rect class="cls-3" x="73.47" y="648.85" width="130.42" height="2.15"/><rect class="cls-3" x="73.47" y="648.85" width="74.19" height="2.15"/><path class="cls-3" d="M277.7,683.34a21.74,21.74,0,1,1,21.74-21.73,21.76,21.76,0,0,1-21.74,21.73m0-41.12a19.39,19.39,0,1,0,19.39,19.39,19.41,19.41,0,0,0-19.39-19.39" transform="translate(0.22 -40.38)"/><path class="cls-3" d="M291.74,645.75v2.18a19.47,19.47,0,0,1,5.71,13.68,19.75,19.75,0,1,1-19.74-19.75h0v-1.64h0a21.38,21.38,0,1,0,21.38,21.38,21.06,21.06,0,0,0-7.35-15.86" transform="translate(0.22 -40.38)"/><path class="cls-3" d="M353.73,683.34a21.74,21.74,0,1,1,21.74-21.73,21.77,21.77,0,0,1-21.74,21.73m0-41.12a19.39,19.39,0,1,0,19.39,19.39,19.41,19.41,0,0,0-19.39-19.39" transform="translate(0.22 -40.38)"/><path class="cls-3" d="M371.52,670a19.55,19.55,0,0,1-3.82,5.57,19.75,19.75,0,1,1-.09-28l1.15-1.16a21.76,21.76,0,1,0,4,24.78Z" transform="translate(0.22 -40.38)"/><path class="cls-3" d="M277.7,733.3a21.74,21.74,0,1,1,21.74-21.74A21.76,21.76,0,0,1,277.7,733.3m0-41.12a19.39,19.39,0,1,0,19.39,19.38,19.4,19.4,0,0,0-19.39-19.38" transform="translate(0.22 -40.38)"/><path class="cls-3" d="M293.23,723.61a19.71,19.71,0,1,1-8.1-30.32h3.52a21.19,21.19,0,0,0-10.94-3.11,21.38,21.38,0,1,0,17.63,33.43Z" transform="translate(0.22 -40.38)"/><path class="cls-3" d="M353.73,733.3a21.74,21.74,0,1,1,21.74-21.74,21.77,21.77,0,0,1-21.74,21.74m0-41.12a19.39,19.39,0,1,0,19.39,19.38,19.41,19.41,0,0,0-19.39-19.38" transform="translate(0.22 -40.38)"/><path class="cls-3" d="M357.59,730.92a19.74,19.74,0,1,1,15.86-19.58h1.64a21.59,21.59,0,1,0-17.5,21.21Z" transform="translate(0.22 -40.38)"/><path class="cls-3" d="M277.7,785.13a21.74,21.74,0,1,1,21.74-21.73,21.76,21.76,0,0,1-21.74,21.73m0-41.12a19.39,19.39,0,1,0,19.39,19.39A19.41,19.41,0,0,0,277.7,744" transform="translate(0.22 -40.38)"/><path class="cls-3" d="M296.92,767.79a19.93,19.93,0,1,1-14.58-23.53h4.71a21.12,21.12,0,0,0-9.34-2.24,21.38,21.38,0,1,0,20.91,25.77Z" transform="translate(0.22 -40.38)"/><path class="cls-3" d="M353.73,785.13a21.74,21.74,0,1,1,21.74-21.73,21.77,21.77,0,0,1-21.74,21.73m0-41.12a19.39,19.39,0,1,0,19.39,19.39A19.41,19.41,0,0,0,353.73,744" transform="translate(0.22 -40.38)"/><path class="cls-3" d="M366.67,778.19a19.74,19.74,0,1,1-5.75-33.14h3.62a21.35,21.35,0,1,0,4.56,33.14Z" transform="translate(0.22 -40.38)"/><path class="cls-3" d="M559.45,776c1.78,0-1-.18,1.16-.08a2.39,2.39,0,0,1-1.16.08" transform="translate(0.22 -40.38)"/><path class="cls-3" d="M560.87,769.68c-.53-5.72,0-13.26-.33-19.53,0-.73.29.19.22-1.47-.41-6.07-.16-15.65.15-23l.08.45c.06-1.41-.21-3.13-.17-4.62.06,0,.08.47.15.13-.16-.38-.07-2.7-.2-3.34.07-.59.2-.53.27-1.29l-.19-.86c-.44-2.38,0-5.77-.2-9,.05.16.08.48.12.22-.26-5.2-.21-11.72-.31-17.54.06.23.18.45.26.1a15.93,15.93,0,0,1-.29-3.64c.2-.7-.18-2.68-.07-4.51l0,.16c-.21-1.36.13-2-.13-3.11l.16-.85c-.28-.6.15-2,0-3.08l0,0c-.07-1.06.07-1.61,0-2.58l0-.1c-.07-2.29.09-3.62-.13-3.56.17-.8.08,2.22.34,1-.17-5.52-.19-11.47-.19-16.81h-5.74a10.72,10.72,0,0,1-1.6-.2c-.76,0-2.85,0-3.54.15.25,0-.49-.11-.89-.12-1.38-.09-1.51.24-3,.14.61-.06.81-.13.61-.21-1.29.17-3,.14-4.55.2.24,0,.61-.06.55-.13-1.67.2-3,0-4.51.08l.55-.12c-2.36-.16-.7.26-2.73.17.49,0,.31-.09.4-.14-1.9.23-5,.15-6.87.23.11,0,.08-.05.08-.05-2.07,0-4.22,0-6.5.06-.82-.06.28-.31-1.91-.27.08.26-3.71.11-2.42.4-1.87,0-4.83-.14-6.07-.05.84-.1-.91-.32.64-.34l-1.17-.15c.17-.11,1.2,0,.83-.1-.78,0-3,.11-3.74.07a41.9,41.9,0,0,1-5.1.49c1.1-.1-.62-.29.12-.33l-3.25.49c-.78,0-.17-.2-1.29-.14.06.07-.43.11-.78.17a19.56,19.56,0,0,1-3.56-.19c-.34-.1,1.26,0,.4-.14l-2.93.09,0,0c-.95,0-2.8.1-1.77.24.66,0-.25-.15.73-.07a27.56,27.56,0,0,1-3.77.19,1.33,1.33,0,0,0,.63-.18c-1.93.2-4,.26-6.12.34,0,.12.8-.22,1.12-.15-2.76-.17-5.7.23-8,0,.38,0,.21.17.18.14-1.33,0-1.27-.19-2.13-.13a11.25,11.25,0,0,0-2,.06c-.46.08-.24,0,.54-.06-1.24.09-6.21.25-9.08.1a12.49,12.49,0,0,1-2.42.24l.26-.16c-.61-.09-2.22,0-2.33-.12-1.4.19,5.43-.16,3.52,0-.49-.13-2.65.26-2.24,0a31.52,31.52,0,0,1-3.88,0c.37,0,1.08-.22,0-.21-1.88,0-.54.07-2.06.13l-1,.06c-.06.16-1.69,0-1,.15-.24-.12-2.74.08-2.55-.17l.26-.21a13.84,13.84,0,0,0-2,.31c-.11,0-.32-.06-.28-.1-.13.31-2,0-2.91.22l-2.05-.07c0,.23,0,.44,0,.64a6,6,0,0,1-.1.86,34.35,34.35,0,0,1,.14,4,2.92,2.92,0,0,0-.11-.79,9.73,9.73,0,0,0,0,2c0-.19-.18,1.88-.29,2.93.09,1.3.26.86.36,1-.3,1.19.2,3.68-.08,5.17,0-.45-.15-1.9-.22-.82-.31,1.2.22,2.41.07,4.33l.26-.47c-.16.86.14,2.83-.11,2.64.09.64-.09,2.26.16,2.05-.21,3.16.12,7.68-.32,9.62,0,.45,0,1.59.13,1.35.14-.75-.1-1.05,0-1.33,0,.41.07.5.1.54-.05,1-.07,1.76-.27.83-.16,2.18.41,2.25.32,5-.1-.13-.14.09-.13.9l.18,1.54c0,1.8-.23,1-.41,1.07a16.53,16.53,0,0,0,.15,2.57l-.21,1.17c.15-.85.1.79.14,1.24l0-.45a12.12,12.12,0,0,0,0,1.85,9.21,9.21,0,0,0,.18-1.89c.06.71.09,1,.15,1.91-.17-.22-.12,1.56-.14,2.33a4.79,4.79,0,0,0,.15,1.24c-.09,0,0,1.43-.14.75a7.41,7.41,0,0,0,0-1.18,4.39,4.39,0,0,0-.11,1.71c.09.9.34-.23.23,1.48a6.9,6.9,0,0,0-.17-.88L442,710l.16.07c0,.22,0,.07-.08.17.17.48.05,2.45.24,2.81,0,.81-.11,1.7-.13,2.48v-.15a15.43,15.43,0,0,0,.07,3l0,0a20.09,20.09,0,0,0,.1,2.38c-.12,1.3-.58.44-.39,1.88,0,1.32.29,2.07.38,1.54-.1,2.38.15,5.07-.09,7.28a2.62,2.62,0,0,1,.14.83c-.06,3.49.18,7.36-.12,10.14-.06-1-.15-.07-.24-.05.14.84-.15,1,.09,1.31.14-.09.21,0,.26-1a62.38,62.38,0,0,1,0,6.41c.06-.58.11-.14.15.32-.22-.15-.26,1.38-.18,2.54l.14.17-.14.75a3.61,3.61,0,0,1,.15,1.65.64.64,0,0,0-.14.34,26.27,26.27,0,0,1,.18,4.2l-.2,1.06c0,.56.14,1.5.2.52a38.53,38.53,0,0,1-.3,4.36c.16,1.48.26,3.21.32,5,0,1.5.06,3,.09,4.44h2.06l-.14.1c1.2.1.63-.17,1.46-.1-.39.09.91.21,0,.32a18.23,18.23,0,0,0,3.32-.22c.17-.13-.89.09-.68-.08a15.86,15.86,0,0,0,2.64-.1c.43.08.09.23-.14.31l1.05-.1c1.28.24-2.92.42-1.58.71l1,0c.92.21-2.55.24-.13.31,1.05-.1,1.95-.39,1-.48,2.19-.05,1-.48,3.36-.46.65.12-1.88,0-1.43.19,1.11.16,2.23-.09,3.21,0-1.09-.08-.17-.28.54-.32,1.2.1-.78.19.92.21.28-.11,1.83-.2.49-.28.61-.27,1.76.07,2.68-.13.55.18-1.74.43.12.52-.3-.18,2.29-.24,1.31-.51.73.05.81.19.27.3,1.05.11,2.53-.32,2.87,0l.36-.18,1.33.2c.92,0,3-.25,2.87,0,.3,0,2.39,0,1.58-.21-1.3-.11-1.5.14-2.22-.12a7.85,7.85,0,0,0,2.63-.09l.12.1a12.56,12.56,0,0,0,1.76-.13c-.34.06-.16.13.2.16l.47-.16c1.82-.08.43.28,2.2.23l-1.35.13c.3,0,.9.13,1.75.08l1.23-.45c1-.06.45.17,1.43,0l-1.29.18a5.73,5.73,0,0,0,2.21.24c.85,0,2.18-.27.83-.35.67,0,1.61.09,1.08.2,1.51-.05-.2-.16,1.11-.25l3.2.38-1.36.25h.91c-1.18.2.59.15-.07.36a16.05,16.05,0,0,0,2-.09c-1.81-.34,2-.46,1.51-.77,2.48-.08,1.55.75,4.14.27-.42-.08.8-.31-.77-.23,1.55,0,1.06-.3,2.88-.18-1.35.13,1.45.31-.5.5.13-.11-1.09-.08-1.39-.05.64.12-.13.31,1.45.31,1,0,2.29,0,2.1-.2,0-.17-1.48,0-.86-.16,1.93-.06,2.24.21,3-.1-1.21,0-1.52-.16-1.49-.28l1.41-.07-.28.11c2.27.09.67-.21,2.87-.18l1,.23c-.52.2-3.2-.08-2.81.24,1.43,0,1.91-.15,3.25-.07l-1,.07a7.79,7.79,0,0,0,3.05.18c1-.09.28-.11.31-.23l4.45-.18c-.31.24,2.6,0,1,.26a22.84,22.84,0,0,0-4.88.1c.83.28-1.8,0-2.29.25,1.84,0,1.75.28,2,.46a10.45,10.45,0,0,0,1.31-.09c.22-.17-.45-.17-.49-.34a35.13,35.13,0,0,0,5.16-.22c.68.09.47.26-.35.27,2.45,0,5.05,0,7.37,0-1.5-.28,2.58-.07,1.56-.3-1.24-.06-2.31-.26-1.62-.38s0,.12.3.18c1-.15,1.53.24,2.5,0-2.23.09-.43.34-.84.56,1.61-.13-.07.15,1.52.15s3.57-.22,5.35-.26c2.23.2,5.66,0,7.66,0,1,.11.33.36,1.47.4,1.33,0-1-.26,1-.15l-.19,0c.6-.06,3.61.16,4.2-.19l-.61.27a6.24,6.24,0,0,0,1-.07c0,.09.44.17-.16.22a26.55,26.55,0,0,0,3.88,0l-.85-.16c2.26-.12,3.78,0,6,0l-.06.15,1.3-.09c-.32.15.88.24,1.56.12l-3.38.38c-.94-.09,1-.19.44-.34a9.66,9.66,0,0,0-2.86.06,8.37,8.37,0,0,0,1.42-.08c.25.22-.92.21-1.51.35a5.89,5.89,0,0,0,1.08,0,23,23,0,0,1-2.94.13c.9-.09-.49-.13-.14-.2a7.79,7.79,0,0,1-3,.2c-1.18-.22-3.09.14-5,.08a16.53,16.53,0,0,1,2.92-.42l-2.53-.1a9,9,0,0,1-2.55.45l-.08-.14a25,25,0,0,1-3.22.24l-8.59-.09-.09-.14c-1.31.31-4.36.12-6.12.25-3-.14-6.51.13-8-.11-5.29.11-9.91.22-15.39.16l.92-.2c-1,.15-.63-.12-1.6-.09,1.11.17-1.33.21-2,.34a63.13,63.13,0,0,0-7.73.16l-.08-.14a62.86,62.86,0,0,1-7.52,0,6.73,6.73,0,0,0-1.61-.18c-1.48.23-2.25.21-4.42.35-1.58,0-4.15,0-5.75-.14-5.95.32-12,.11-18.21.31l-.45-.17-3.12.13-4.23,0c0-2.49,0-5,0-7.39,0-2,0-3.93-.05-5.71l.28.49c.08-1.6-.08-3.65-.28-3.25.09-1.6-.13-4,.1-5,0-1.64-.13-2-.17-3.38.11-3.29.08-4.51,0-7.62l0,.77c.06.34.19.37.2-.4-.08-1.15.08-4.26-.26-3.1.2-3.32-.16-7.73.11-11-.1.27-.11-.54-.18-.89,0-2.9.19-6,0-8.28,0-.46.16.74.17-.45,0-.7-.12,0-.17-.87-.18-4.71.17-9.54.13-13.82-.18-7.61-.09-15.56-.12-22.85l.07.08c-.26-2.44.26-5.73-.13-7.68.07-.57,0-2.2.16-1.77-.18-2,.18-5.45-.06-8.26a5.8,5.8,0,0,0,0,.7c.15-2.83-.05-5.34.08-8.34a4.43,4.43,0,0,0,.12.95c.13-1.16-.29-2.75,0-3.38,0-.66-.16-.47-.15-.07,0-1.47,0-2.93,0-4.43l17.91-.19c4.89.19.3.55,4.16.3.31.07.23-.12.28,0,1.49-.09,2.33.36,3.36.19-.42-.2.69-.11.72-.23a43,43,0,0,0,6,.15l-.18.11c2.77-.3,6-.14,8.31-.48l44.79-.29h36.32c0,3.47,0,7-.07,10.64a48.53,48.53,0,0,0-.16,7.6c-.05-.15-.06-.39-.1-.14.23.2,0,2.71.24,3.08,0,5.54,0,10.61,0,16.3,0-.9-.21-1.35-.19-.29l.14,1.12-.06.18c0,.73.14,1.53.22.78.19,14.27-.26,28.32-.21,42.3-.09,3.32,0,8,0,11.66-.3,10.69-.55,20.33-.33,31.2,0,0-.59-1.42-.73-5.91" transform="translate(0.22 -40.38)"/><path class="cls-3" d="M557.31,776c-.38-.11-1.62-.17-.63-.32.12.1.77.22.63.32" transform="translate(0.22 -40.38)"/><path class="cls-3" d="M524.11,774.82a2.6,2.6,0,0,1-.58-.07,6.23,6.23,0,0,1,1.12,0,1,1,0,0,0-.54.11" transform="translate(0.22 -40.38)"/><path class="cls-3" d="M515.62,774.75a20.16,20.16,0,0,1,3-.2Z" transform="translate(0.22 -40.38)"/><path class="cls-3" d="M507.71,774.33c-.69-.08-.5-.13.42-.13.07.06-.24.08-.42.13" transform="translate(0.22 -40.38)"/><path class="cls-3" d="M507.14,774.56a7.07,7.07,0,0,1-1.3-.11c0,.08,1.52-.06,1.3.11" transform="translate(0.22 -40.38)"/><path class="cls-3" d="M490,774.27a7.93,7.93,0,0,1-1.69,0c.43.08,2-.13,1.69,0" transform="translate(0.22 -40.38)"/><path class="cls-3" d="M482,774.42a5,5,0,0,0-.67,0c-.47,0,0-.12.43-.13Z" transform="translate(0.22 -40.38)"/><polygon class="cls-3" points="442.38 630.49 442.43 631.36 442.33 631.23 442.38 630.49"/><path class="cls-3" d="M486.8,653.37c.87-.07.61.09.75.11-.78,0,.28-.13-.75-.11" transform="translate(0.22 -40.38)"/><polygon class="cls-3" points="521.35 612.48 521.09 612.48 521.18 612.27 521.35 612.48"/><path class="cls-4" d="M54.54,322.38l-.2-.68a6.33,6.33,0,0,0,4.52-7.64l-1.38-4.83a5.9,5.9,0,0,0-3-3.63,6.56,6.56,0,0,0-3.44-.69l0-.71a7.4,7.4,0,0,1,3.85.78,6.56,6.56,0,0,1,3.37,4l1.39,4.83a7.08,7.08,0,0,1-5.05,8.53" transform="translate(0.22 -40.38)"/><path class="cls-4" d="M63,350.29h0l-.11-.35-.12-.32a6.25,6.25,0,0,0,4-7.47l-1.39-4.83a6.27,6.27,0,0,0-7.71-4.13l-.17-.69a7,7,0,0,1,8.61,4.61L67.47,342A7,7,0,0,1,63,350.29Z" transform="translate(0.22 -40.38)"/><path class="cls-4" d="M60.75,351.21a11.37,11.37,0,0,1-6.07.05A9.89,9.89,0,0,1,48.26,346a97.35,97.35,0,0,1-8.72-30.44,9.91,9.91,0,0,1,2.66-7.85,11.38,11.38,0,0,1,8-3.6h.13a2.42,2.42,0,0,1,2.57,2.27,85.67,85.67,0,0,0,11.56,40.34,2.41,2.41,0,0,1-1,3.29l-.11.07a11.82,11.82,0,0,1-2.62,1.12m-13.19-46a10.61,10.61,0,0,0-4.81,2.95,9.23,9.23,0,0,0-2.47,7.29A97,97,0,0,0,49,345.71a9.19,9.19,0,0,0,6,4.87A10.56,10.56,0,0,0,63,349.49l.11-.07a1.71,1.71,0,0,0,.69-2.34,86.38,86.38,0,0,1-11.65-40.64,1.72,1.72,0,0,0-1.82-1.62h-.14a10.52,10.52,0,0,0-2.62.4" transform="translate(0.22 -40.38)"/><path class="cls-4" d="M76.69,337.1a12.91,12.91,0,0,1-.42,6.34.79.79,0,0,0,.45,1l0,0a.92.92,0,0,0,1.23-.53,14.39,14.39,0,0,0-4.71-15.78,1,1,0,0,0-1.24.08.83.83,0,0,0,0,1.26,12.78,12.78,0,0,1,4.6,7.63" transform="translate(0.22 -40.38)"/><path class="cls-4" d="M69.7,330.49h0a.82.82,0,0,0,0,1.26,9.81,9.81,0,0,1,3.51,10.44.78.78,0,0,0,.46.94l.05,0a.94.94,0,0,0,1.25-.59,11.58,11.58,0,0,0,.22-5.18,11.45,11.45,0,0,0-4.3-7,.94.94,0,0,0-1.23.09" transform="translate(0.22 -40.38)"/><path class="cls-4" d="M67.6,332.53h0a.84.84,0,0,0,.08,1.29,7.18,7.18,0,0,1,2.84,7.25.79.79,0,0,0,.48.9l.05,0a.92.92,0,0,0,1.25-.61,8.83,8.83,0,0,0-3.47-8.94,1,1,0,0,0-1.22.09" transform="translate(0.22 -40.38)"/><path class="cls-4" d="M297.67,396.4l-39.32-17.78a2,2,0,0,1-1-2.57l9.73-20.84a.39.39,0,1,1,.71.34l-9.72,20.83a1.16,1.16,0,0,0,.6,1.52L298,395.69a1.17,1.17,0,0,0,1.54-.55l9.75-20.93a.37.37,0,0,1,.52-.19.38.38,0,0,1,.19.52l-9.75,20.94a2,2,0,0,1-2.57.92" transform="translate(0.22 -40.38)"/><path class="cls-4" d="M283.15,367h0a65.22,65.22,0,0,1-15.61-11.24,2.07,2.07,0,0,1-.5-2.31l5.21-11.53a1.59,1.59,0,0,1,2.13-.66l41.15,18.61a1.58,1.58,0,0,1,.9,2l-5.2,11.5a2,2,0,0,1-2.1,1.14,65.72,65.72,0,0,1-17.73-3.91.39.39,0,0,1-.23-.5.4.4,0,0,1,.51-.23,65.14,65.14,0,0,0,17.51,3.86,1.3,1.3,0,0,0,1.33-.69l5.2-11.49a.81.81,0,0,0-.52-1L274,341.93a.79.79,0,0,0-1.08.26l-5.22,11.54a1.3,1.3,0,0,0,.35,1.43,64.54,64.54,0,0,0,15.42,11.1.39.39,0,0,1-.35.7" transform="translate(0.22 -40.38)"/><path class="cls-4" d="M288.76,373.73l-6.3-2.85a1.33,1.33,0,0,1-.66-1.75l1.94-4.28a1.32,1.32,0,0,1,1.75-.67l6.3,2.86a1.32,1.32,0,0,1,.66,1.75l-1.94,4.28a1.33,1.33,0,0,1-1.75.66m-3.6-8.83a.54.54,0,0,0-.71.27l-1.93,4.28a.53.53,0,0,0,.26.71l6.31,2.85a.53.53,0,0,0,.71-.26l1.93-4.29a.53.53,0,0,0-.26-.71Z" transform="translate(0.22 -40.38)"/><path class="cls-4" d="M287.45,371.09l-2.14-1a1.21,1.21,0,0,1-.61-1.6l.46-1a1.22,1.22,0,0,1,1.6-.61l2.15,1a1.22,1.22,0,0,1,.6,1.61l-.46,1a1.2,1.2,0,0,1-1.6.6m-1-3.47a.42.42,0,0,0-.56.21l-.46,1a.43.43,0,0,0,.21.57l2.14,1a.44.44,0,0,0,.57-.22l.45-1a.42.42,0,0,0-.21-.56Z" transform="translate(0.22 -40.38)"/><path class="cls-4" d="M305.53,355.91a.39.39,0,0,1-.2-.52l1.72-3.79a2,2,0,0,0-1-2.59l-16.8-7.6a2,2,0,0,0-2.59,1l-1.72,3.8a.39.39,0,0,1-.52.2.4.4,0,0,1-.19-.52l1.72-3.8a2.74,2.74,0,0,1,3.62-1.37l16.81,7.6a2.75,2.75,0,0,1,1.37,3.63l-1.72,3.8a.39.39,0,0,1-.52.19" transform="translate(0.22 -40.38)"/><path class="cls-4" d="M303.31,354.71a.39.39,0,0,1-.2-.52l1-2.24c.22-.5-.19-1.18-.91-1.51l-13.14-5.94c-.72-.33-1.51-.18-1.73.31l-1,2.25a.39.39,0,0,1-.71-.33l1-2.24a2,2,0,0,1,2.77-.71l13.15,6a2,2,0,0,1,1.29,2.54l-1,2.25a.39.39,0,0,1-.52.19" transform="translate(0.22 -40.38)"/><path class="cls-4" d="M271,259.18c-8.28,4.5-13.48,2.29-13.69,2.2l-.11-.05-5.48-10.08,14-.55,9-12.2,5.58,10.26,0,.11c0,.24-1,5.8-9.29,10.31m-13.32,1.61c.76.28,5.66,1.78,13-2.21s8.73-8.92,8.91-9.7l-4.95-9.1-8.58,11.59h-.16l-13.06.51Zm7.85-10.43h-.17l-22.13.88L256.1,233h.16l23.23-1.45-1.43,1.92,1.79,3.29.37-.2,1.36,2.51.34-.19.47,2.29-1.72.94L279,240.44l.33-.18-1.36-2.5.37-.2L276.94,235Zm15.24-9.11.83-.46-.19-.89-1.29.7ZM244.6,250.5l20.59-.81,11.83-16,2.25,4.13-.36.2,1,1.9,1-.56-1-1.9-.36.19-2.32-4.27.8-1.09-21.59,1.36Z" transform="translate(0.22 -40.38)"/><path class="cls-4" d="M161.13,773.09h-43a1.87,1.87,0,0,1-1.87-1.87V737.71a1.87,1.87,0,0,1,1.87-1.87h43a1.87,1.87,0,0,1,1.87,1.87v33.51a1.87,1.87,0,0,1-1.87,1.87m-43-36.85a1.47,1.47,0,0,0-1.47,1.47v33.51a1.47,1.47,0,0,0,1.47,1.47h43a1.47,1.47,0,0,0,1.47-1.47V737.71a1.47,1.47,0,0,0-1.47-1.47Z" transform="translate(0.22 -40.38)"/><path class="cls-4" d="M158.29,769.34H121.6a.29.29,0,0,1-.29-.29V739.88a.29.29,0,0,1,.29-.29h36.69a.29.29,0,0,1,.29.29v29.17a.29.29,0,0,1-.29.29m-36.58-.41h36.47V740H121.71Z" transform="translate(0.22 -40.38)"/><path class="cls-4" d="M167.51,785.13H112.72a1,1,0,0,1-.89-.64,2.48,2.48,0,0,1,.14-2.37l4.71-6.4a.93.93,0,0,1,.75-.43h45.33a1,1,0,0,1,.75.43l4.74,6.4a2.45,2.45,0,0,1,.14,2.37,1,1,0,0,1-.88.64m-50.08-9.43a.56.56,0,0,0-.43.26l-4.7,6.4a2.05,2.05,0,0,0-.1,1.95c.08.16.25.42.52.42h54.79c.27,0,.44-.27.52-.43a2.06,2.06,0,0,0-.1-1.94l-4.75-6.4a.53.53,0,0,0-.42-.26Z" transform="translate(0.22 -40.38)"/><path class="cls-4" d="M146.72,783.92H130.86a.43.43,0,0,1-.37-.25,1,1,0,0,1,0-.91l1.36-2a.42.42,0,0,1,.34-.2h13.11a.42.42,0,0,1,.34.2l1.37,2a1,1,0,0,1,0,.91.43.43,0,0,1-.37.25m-15.84-.4H146.7a.29.29,0,0,0,.07-.16.49.49,0,0,0-.05-.37l-1.38-2v0H132.24l0,0-1.36,2a.49.49,0,0,0-.05.37.29.29,0,0,0,.07.16" transform="translate(0.22 -40.38)"/><path class="cls-4" d="M265,538.73c-.56.06-1.11-.07-1.74-.07h-.34c-.83.07-1.67.2-2.5.34h-.07a11.53,11.53,0,0,0-2.77.77c-6,1.87-10.19,6.44-10.39,12.05a11.93,11.93,0,0,0,.41,3.82,8,8,0,0,0,1.73,3.11c.07.14.07.21.14.28.21.49.49.69.7,1.11l-.42.9L246.39,568l13.8-2c1.45.14,3.11.56,4.71.56l.55.14c9.22.34,16-5.76,16.29-13.24.41-7.69-7.14-14.28-16.77-14.69m.9,25.71a.85.85,0,0,0-.7.07,10.79,10.79,0,0,0-2.42-.42,15,15,0,0,0-2.91-.48l-.49.13-.41-.13-8.18,1.45.9-1.87.69-1.66.42-.83-.28-.42-1.38-1.73-.07-.07c-.35-.56-.9-1.18-1.18-1.73a7.69,7.69,0,0,1-1.25-5.13c.28-5.89,6.31-10.61,14.07-11.23.28,0,.62-.07.9-.07a8.8,8.8,0,0,1,1.39-.07,2.35,2.35,0,0,1,.69.07,17.82,17.82,0,0,1,2.7.35c7.21,1.52,12.34,6.72,12.06,12.4-.28,6.86-6.58,11.71-14.55,11.37" transform="translate(0.22 -40.38)"/><path class="cls-4" d="M262.89,538.66a16.64,16.64,0,0,0-8.39-1.46c-.48.07-1,0-1.45.07a13.48,13.48,0,0,0-4.65,1.53c-4.71,2.07-7.76,6.23-7.41,10.88a9.27,9.27,0,0,0,.69,3.12,6.73,6.73,0,0,0,1.73,2.42,5.34,5.34,0,0,0,.84,1.11L242,563.12l7.76-2.08,2.77-.76-1.38-1.73-1.67.48-4.16,1.25.56-1.59.35-1.46.27-.69-1.59-1.74c-.35-.41-.83-.83-1.18-1.24a6.76,6.76,0,0,1-1.52-4.16c-.28-4.92,4.22-9.36,10.53-10.6a14.07,14.07,0,0,1,1.94-.35,12.84,12.84,0,0,1,2.84,0,13.34,13.34,0,0,1,2.84.55h.07a15,15,0,0,1,3.19,1.32,8.8,8.8,0,0,1,1.39-.07,2.32,2.32,0,0,1,.69.07,12.12,12.12,0,0,0-2.77-1.66" transform="translate(0.22 -40.38)"/><path class="cls-4" d="M423.37,594.09a19.13,19.13,0,0,0-9.53,25.32c.24.53.48,1.05.76,1.56a2.09,2.09,0,0,0,1.51,1,1.73,1.73,0,0,0,.54,0l-.24-.53a.83.83,0,0,1-.58-.14,1.31,1.31,0,0,1-.77-.69c-.28-.5-.57-1-.79-1.48a18.66,18.66,0,1,1,34-15.36c.21.48.4,1,.59,1.58a1.59,1.59,0,0,1-.37,1.72,1.64,1.64,0,0,1-.43.31l.21.48a2.52,2.52,0,0,0,.44-.31,2.27,2.27,0,0,0,.65-2.37c-.19-.55-.45-1.12-.66-1.6a19.13,19.13,0,0,0-25.34-9.58m1,2.25A16.63,16.63,0,0,0,415,615a1.1,1.1,0,0,0,.14.57,1.66,1.66,0,0,1,.39-.41,2.19,2.19,0,0,1-.12-.52,16.14,16.14,0,0,1,28.78-12.77,2.53,2.53,0,0,1,.38.58,1.22,1.22,0,0,1,.83.32,2.49,2.49,0,0,0-.51-.75,16.72,16.72,0,0,0-20.54-5.7" transform="translate(0.22 -40.38)"/><path class="cls-4" d="M416,614.37a2.32,2.32,0,0,0-.51.29L415,615a3,3,0,0,0-.58,3.31l3.61,8a3,3,0,0,0,5.45-2.46l-3.61-8a3,3,0,0,0-3.95-1.5m7.08,9.7a2.51,2.51,0,0,1-1.21,3.31,2.55,2.55,0,0,1-3.33-1.26l-3.61-8a2.49,2.49,0,0,1,.29-2.55,1.66,1.66,0,0,1,.39-.41,3.62,3.62,0,0,1,.58-.38,2.47,2.47,0,0,1,3.28,1.29Z" transform="translate(0.22 -40.38)"/><path class="cls-4" d="M444.92,602a2.3,2.3,0,0,0-.7-.15,3.78,3.78,0,0,0-1.3.3,3,3,0,0,0-1.5,4l3.61,8a3,3,0,0,0,5.5-2.49l-3.61-8a2.77,2.77,0,0,0-2-1.63m5.13,9.83a2.49,2.49,0,1,1-4.54,2l-3.61-8a2.48,2.48,0,0,1,1.21-3.31,2.39,2.39,0,0,1,1.49-.15,1.22,1.22,0,0,1,.83.32,2.3,2.3,0,0,1,1,1.09Z" transform="translate(0.22 -40.38)"/><polygon class="cls-4" points="48.77 258.92 48.08 258.92 48.08 193 96.93 193 96.93 193.69 48.77 193.69 48.77 258.92"/><polygon class="cls-4" points="439.86 287.55 439.17 287.55 439.17 273.25 270.57 273.25 270.57 221.17 271.26 221.17 271.26 272.55 439.86 272.55 439.86 287.55"/><polygon class="cls-4" points="157.77 334.12 157.08 334.12 157.08 323.34 259.37 323.34 259.37 324.03 157.77 324.03 157.77 334.12"/><polygon class="cls-4" points="140.45 519.93 139.76 519.93 139.76 506.3 238.57 506.3 238.57 506.99 140.45 506.99 140.45 519.93"/><polygon class="cls-4" points="500.22 606.85 499.53 606.85 499.53 567.19 451 567.19 451 566.5 500.22 566.5 500.22 606.85"/><polygon class="cls-4" points="233.43 717.21 166.09 717.21 166.09 716.52 232.74 716.52 232.74 587.54 244.92 587.54 244.92 588.23 233.43 588.23 233.43 717.21"/></g></svg>